<?xml version="1.0" encoding="UTF-8"?>
<svg xmlns="http://www.w3.org/2000/svg" xmlns:xlink="http://www.w3.org/1999/xlink" width="200px" height="135px" viewBox="0 0 199 135" version="1.1">
<defs>
<clipPath id="clip1">
  <path d="M 0.0351562 79.046875 L 198.558594 79.046875 L 198.558594 114.898438 L 0.0351562 114.898438 Z M 0.0351562 79.046875 "/>
</clipPath>
<clipPath id="clip2">
  <path d="M 37.757812 123.363281 L 160.84375 123.363281 L 160.84375 134.5625 L 37.757812 134.5625 Z M 37.757812 123.363281 "/>
</clipPath>
<clipPath id="clip3">
  <path d="M 55.605469 0 L 130 0 L 130 27 L 55.605469 27 Z M 55.605469 0 "/>
</clipPath>
<clipPath id="clip4">
  <path d="M 132 45 L 142.996094 45 L 142.996094 70.585938 L 132 70.585938 Z M 132 45 "/>
</clipPath>
</defs>
<g id="surface1">
<g clip-path="url(#clip1)" clip-rule="nonzero">
<path style=" stroke:none;fill-rule:nonzero;fill:rgb(29.803923%,68.627453%,31.37255%);fill-opacity:1;" d="M 32.09375 81.605469 L 32.515625 89.75 L 30.777344 89.75 C 30.691406 88.527344 30.492188 87.503906 30.183594 86.679688 C 29.871094 85.855469 29.425781 85.207031 28.847656 84.734375 C 28.265625 84.269531 27.535156 83.9375 26.660156 83.738281 C 25.78125 83.539062 24.734375 83.4375 23.519531 83.4375 C 22.472656 83.4375 21.628906 83.460938 20.996094 83.507812 C 20.355469 83.546875 19.867188 83.625 19.527344 83.738281 C 19.1875 83.851562 18.972656 83.988281 18.875 84.148438 C 18.773438 84.300781 18.722656 84.503906 18.722656 84.761719 L 18.722656 107.566406 C 18.722656 108.476562 18.785156 109.257812 18.917969 109.910156 C 19.042969 110.566406 19.296875 111.097656 19.679688 111.507812 C 20.058594 111.921875 20.613281 112.234375 21.335938 112.445312 C 22.054688 112.660156 23.007812 112.78125 24.199219 112.808594 L 24.199219 114.429688 L 8.152344 114.429688 L 8.152344 112.808594 C 9.339844 112.78125 10.304688 112.660156 11.039062 112.445312 C 11.773438 112.234375 12.335938 111.921875 12.71875 111.507812 C 13.097656 111.097656 13.355469 110.566406 13.484375 109.910156 C 13.609375 109.257812 13.671875 108.476562 13.671875 107.566406 L 13.671875 84.761719 C 13.671875 84.503906 13.621094 84.300781 13.527344 84.148438 C 13.425781 83.988281 13.226562 83.851562 12.933594 83.738281 C 12.632812 83.625 12.214844 83.546875 11.675781 83.507812 C 11.136719 83.460938 10.417969 83.4375 9.511719 83.4375 C 8.40625 83.4375 7.382812 83.480469 6.4375 83.566406 C 5.488281 83.652344 4.667969 83.898438 3.976562 84.308594 C 3.28125 84.722656 2.71875 85.359375 2.292969 86.210938 C 1.871094 87.0625 1.644531 88.242188 1.617188 89.75 L 0.046875 89.75 L 0.046875 81.605469 Z M 43.636719 105.179688 L 43.636719 101.8125 C 42.023438 102.4375 40.65625 103.046875 39.539062 103.644531 C 38.421875 104.242188 37.527344 104.839844 36.847656 105.4375 C 36.167969 106.03125 35.679688 106.628906 35.378906 107.226562 C 35.082031 107.824219 34.9375 108.433594 34.9375 109.058594 C 34.9375 109.996094 35.246094 110.765625 35.871094 111.359375 C 36.492188 111.957031 37.3125 112.257812 38.332031 112.257812 C 39.066406 112.257812 39.753906 112.070312 40.386719 111.703125 C 41.027344 111.332031 41.585938 110.828125 42.066406 110.183594 C 42.546875 109.546875 42.929688 108.792969 43.214844 107.925781 C 43.496094 107.0625 43.636719 106.144531 43.636719 105.179688 Z M 37.527344 102.664062 L 43.636719 99.980469 L 43.636719 98.230469 C 43.636719 94.765625 42.167969 93.03125 39.222656 93.03125 C 38.742188 93.03125 38.332031 93.074219 37.992188 93.160156 C 37.652344 93.242188 37.371094 93.386719 37.144531 93.585938 C 36.917969 93.785156 36.710938 94.066406 36.523438 94.4375 C 36.34375 94.808594 36.167969 95.261719 35.996094 95.800781 C 35.6875 96.625 35.378906 97.171875 35.082031 97.4375 C 34.785156 97.710938 34.355469 97.847656 33.789062 97.847656 C 32.375 97.847656 31.667969 97.136719 31.667969 95.714844 C 31.667969 94.351562 32.390625 93.292969 33.832031 92.535156 C 35.277344 91.785156 37.328125 91.410156 39.988281 91.410156 C 42.816406 91.410156 44.828125 91.914062 46.015625 92.917969 C 47.203125 93.929688 47.796875 95.644531 47.796875 98.0625 L 47.796875 107.609375 C 47.796875 110.847656 48.433594 112.46875 49.707031 112.46875 C 50.105469 112.46875 50.484375 112.417969 50.855469 112.316406 C 51.222656 112.21875 51.53125 111.957031 51.789062 111.53125 L 52.382812 112.554688 C 52.042969 113.207031 51.417969 113.753906 50.515625 114.191406 C 49.609375 114.636719 48.660156 114.855469 47.671875 114.855469 C 46.425781 114.855469 45.496094 114.457031 44.886719 113.664062 C 44.28125 112.867188 43.976562 111.746094 43.976562 110.296875 L 43.765625 110.296875 C 43.03125 111.6875 42.011719 112.789062 40.710938 113.59375 C 39.40625 114.40625 37.964844 114.8125 36.378906 114.8125 C 34.597656 114.8125 33.195312 114.359375 32.175781 113.449219 C 31.160156 112.539062 30.648438 111.316406 30.648438 109.785156 C 30.648438 109.101562 30.769531 108.449219 31.003906 107.824219 C 31.25 107.199219 31.640625 106.601562 32.175781 106.03125 C 32.714844 105.464844 33.421875 104.902344 34.300781 104.34375 C 35.175781 103.792969 36.253906 103.234375 37.527344 102.664062 Z M 56.839844 112.9375 L 55.988281 114.429688 L 55.054688 114.429688 L 55.054688 107.097656 L 56.117188 107.097656 C 57.222656 111.105469 59.230469 113.109375 62.144531 113.109375 C 63.277344 113.109375 64.171875 112.832031 64.835938 112.273438 C 65.503906 111.722656 65.835938 110.878906 65.835938 109.742188 C 65.835938 109.316406 65.773438 108.949219 65.640625 108.648438 C 65.519531 108.355469 65.277344 108.042969 64.921875 107.710938 C 64.570312 107.386719 64.074219 107.011719 63.433594 106.585938 C 62.800781 106.160156 61.960938 105.621094 60.914062 104.964844 C 59.953125 104.371094 59.117188 103.816406 58.410156 103.304688 C 57.703125 102.792969 57.109375 102.273438 56.625 101.742188 C 56.144531 101.222656 55.785156 100.660156 55.539062 100.0625 C 55.300781 99.46875 55.183594 98.769531 55.183594 97.976562 C 55.183594 97.007812 55.34375 96.121094 55.667969 95.308594 C 55.996094 94.5 56.441406 93.8125 57.007812 93.242188 C 57.574219 92.675781 58.238281 92.226562 59.003906 91.898438 C 59.769531 91.574219 60.601562 91.410156 61.507812 91.410156 C 62.273438 91.410156 63.0625 91.53125 63.886719 91.769531 C 64.707031 92.011719 65.425781 92.335938 66.050781 92.730469 L 66.898438 91.835938 L 67.707031 91.835938 L 67.707031 97.976562 L 66.601562 97.976562 C 65.980469 96.242188 65.300781 95.007812 64.5625 94.265625 C 63.828125 93.527344 62.921875 93.160156 61.847656 93.160156 C 60.886719 93.160156 60.113281 93.414062 59.53125 93.925781 C 58.953125 94.4375 58.664062 95.148438 58.664062 96.058594 C 58.664062 96.539062 58.742188 96.957031 58.894531 97.3125 C 59.050781 97.667969 59.300781 98.019531 59.640625 98.359375 C 59.980469 98.699219 60.410156 99.046875 60.929688 99.398438 C 61.457031 99.757812 62.089844 100.164062 62.824219 100.617188 C 64.039062 101.386719 65.078125 102.066406 65.941406 102.664062 C 66.804688 103.261719 67.507812 103.851562 68.042969 104.429688 C 68.582031 105.015625 68.980469 105.621094 69.234375 106.246094 C 69.488281 106.871094 69.617188 107.582031 69.617188 108.378906 C 69.617188 110.394531 68.964844 111.976562 67.664062 113.125 C 66.359375 114.28125 64.648438 114.855469 62.527344 114.855469 C 60.320312 114.855469 58.421875 114.21875 56.839844 112.9375 Z M 86.375 114.429688 L 86.375 112.9375 C 87.308594 112.9375 87.953125 112.894531 88.308594 112.808594 C 88.660156 112.726562 88.835938 112.613281 88.835938 112.46875 C 88.808594 112.242188 88.582031 111.828125 88.15625 111.234375 C 87.730469 110.636719 87.179688 109.925781 86.5 109.101562 L 82 103.644531 L 80.429688 105.136719 L 80.429688 107.652344 C 80.429688 108.761719 80.480469 109.648438 80.582031 110.3125 C 80.679688 110.984375 80.863281 111.507812 81.136719 111.890625 C 81.402344 112.277344 81.796875 112.539062 82.324219 112.683594 C 82.84375 112.824219 83.53125 112.910156 84.378906 112.9375 L 84.378906 114.429688 L 72.324219 114.429688 L 72.324219 112.9375 C 73.171875 112.910156 73.859375 112.824219 74.386719 112.683594 C 74.90625 112.539062 75.316406 112.285156 75.617188 111.914062 C 75.910156 111.546875 76.117188 111.046875 76.230469 110.421875 C 76.339844 109.796875 76.398438 108.972656 76.398438 107.949219 L 76.398438 90.089844 C 76.398438 87.929688 76.378906 86.296875 76.339844 85.1875 C 76.292969 84.078125 76.144531 83.324219 75.890625 82.929688 C 75.632812 82.53125 75.210938 82.296875 74.617188 82.230469 C 74.019531 82.15625 73.230469 82.117188 72.238281 82.117188 L 72.238281 80.667969 L 80.429688 79.046875 L 80.429688 102.453125 L 84.378906 98.574219 C 85.652344 97.292969 86.601562 96.347656 87.222656 95.734375 C 87.84375 95.125 88.15625 94.664062 88.15625 94.351562 C 88.15625 94.039062 87.859375 93.789062 87.265625 93.601562 C 86.671875 93.421875 85.820312 93.328125 84.71875 93.328125 L 84.71875 91.835938 L 95.753906 91.835938 L 95.753906 93.328125 C 95.214844 93.328125 94.75 93.359375 94.351562 93.414062 C 93.957031 93.472656 93.582031 93.585938 93.234375 93.753906 C 92.875 93.925781 92.5 94.160156 92.105469 94.453125 C 91.707031 94.753906 91.253906 95.132812 90.746094 95.589844 L 84.632812 101.042969 L 93.039062 110.59375 C 93.433594 111.078125 93.796875 111.464844 94.125 111.761719 C 94.445312 112.0625 94.773438 112.296875 95.101562 112.46875 C 95.421875 112.640625 95.777344 112.757812 96.160156 112.828125 C 96.539062 112.902344 97 112.9375 97.535156 112.9375 L 97.535156 114.429688 Z M 130.433594 88.382812 L 130.433594 107.652344 C 130.433594 108.730469 130.488281 109.605469 130.601562 110.269531 C 130.714844 110.941406 130.9375 111.453125 131.265625 111.804688 C 131.585938 112.164062 132.054688 112.414062 132.664062 112.554688 C 133.269531 112.695312 134.070312 112.78125 135.058594 112.808594 L 135.058594 114.429688 L 121.308594 114.429688 L 121.308594 112.808594 C 122.296875 112.78125 123.097656 112.695312 123.710938 112.554688 C 124.316406 112.414062 124.789062 112.171875 125.128906 111.828125 C 125.464844 111.488281 125.691406 111.003906 125.804688 110.378906 C 125.917969 109.753906 125.976562 108.945312 125.976562 107.949219 L 125.976562 98.699219 L 108.785156 98.699219 L 108.785156 107.652344 C 108.785156 108.730469 108.84375 109.605469 108.953125 110.269531 C 109.066406 110.941406 109.289062 111.453125 109.617188 111.804688 C 109.941406 112.164062 110.40625 112.414062 111.019531 112.554688 C 111.625 112.695312 112.421875 112.78125 113.410156 112.808594 L 113.410156 114.429688 L 99.660156 114.429688 L 99.660156 112.808594 C 100.648438 112.78125 101.449219 112.695312 102.0625 112.554688 C 102.667969 112.414062 103.140625 112.171875 103.480469 111.828125 C 103.820312 111.488281 104.046875 111.003906 104.160156 110.378906 C 104.273438 109.753906 104.328125 108.945312 104.328125 107.949219 L 104.328125 88.085938 C 104.328125 87.089844 104.28125 86.285156 104.183594 85.671875 C 104.082031 85.066406 103.882812 84.582031 103.589844 84.222656 C 103.289062 83.871094 102.855469 83.632812 102.289062 83.507812 C 101.726562 83.375 100.988281 83.28125 100.082031 83.226562 L 100.082031 81.605469 L 112.988281 81.605469 L 112.988281 83.226562 C 112.082031 83.253906 111.355469 83.339844 110.804688 83.480469 C 110.25 83.625 109.828125 83.878906 109.53125 84.25 C 109.230469 84.617188 109.035156 85.128906 108.9375 85.785156 C 108.835938 86.4375 108.785156 87.304688 108.785156 88.382812 L 108.785156 96.570312 L 125.976562 96.570312 L 125.976562 88.085938 C 125.976562 87.089844 125.929688 86.285156 125.832031 85.671875 C 125.730469 85.066406 125.53125 84.582031 125.238281 84.222656 C 124.9375 83.871094 124.503906 83.632812 123.9375 83.507812 C 123.371094 83.375 122.636719 83.28125 121.730469 83.226562 L 121.730469 81.605469 L 134.636719 81.605469 L 134.636719 83.226562 C 133.730469 83.253906 133.003906 83.339844 132.453125 83.480469 C 131.898438 83.625 131.472656 83.878906 131.179688 84.25 C 130.878906 84.617188 130.683594 85.128906 130.585938 85.785156 C 130.484375 86.4375 130.433594 87.304688 130.433594 88.382812 Z M 146.691406 91.410156 L 146.691406 107.652344 C 146.691406 108.761719 146.738281 109.648438 146.835938 110.3125 C 146.9375 110.984375 147.128906 111.507812 147.410156 111.890625 C 147.695312 112.277344 148.089844 112.539062 148.601562 112.683594 C 149.109375 112.824219 149.789062 112.910156 150.636719 112.9375 L 150.636719 114.429688 L 138.457031 114.429688 L 138.457031 112.9375 C 139.304688 112.910156 139.996094 112.816406 140.535156 112.65625 C 141.074219 112.503906 141.488281 112.246094 141.785156 111.890625 C 142.082031 111.539062 142.28125 111.039062 142.378906 110.398438 C 142.480469 109.761719 142.53125 108.945312 142.53125 107.949219 L 142.53125 102.496094 C 142.53125 100.847656 142.507812 99.488281 142.460938 98.417969 C 142.421875 97.355469 142.347656 96.625 142.234375 96.226562 C 142.089844 95.574219 141.765625 95.125 141.257812 94.878906 C 140.746094 94.640625 139.785156 94.523438 138.371094 94.523438 L 138.371094 93.03125 Z M 141.808594 82.757812 C 141.808594 82.019531 142.0625 81.394531 142.574219 80.882812 C 143.082031 80.371094 143.703125 80.113281 144.441406 80.113281 C 145.175781 80.113281 145.796875 80.371094 146.308594 80.882812 C 146.816406 81.394531 147.070312 82.019531 147.070312 82.757812 C 147.070312 83.496094 146.816406 84.121094 146.308594 84.632812 C 145.796875 85.144531 145.175781 85.398438 144.441406 85.398438 C 143.703125 85.398438 143.082031 85.144531 142.574219 84.632812 C 142.0625 84.121094 141.808594 83.496094 141.808594 82.757812 Z M 162.863281 114.898438 L 155.6875 97.125 C 155.347656 96.269531 155.042969 95.59375 154.773438 95.09375 C 154.507812 94.597656 154.21875 94.222656 153.90625 93.96875 C 153.59375 93.710938 153.246094 93.546875 152.863281 93.472656 C 152.484375 93.40625 152.023438 93.359375 151.488281 93.328125 L 151.488281 91.835938 L 162.734375 91.835938 L 162.734375 93.328125 C 162.167969 93.359375 161.703125 93.386719 161.335938 93.414062 C 160.964844 93.441406 160.675781 93.503906 160.460938 93.601562 C 160.25 93.703125 160.101562 93.847656 160.019531 94.027344 C 159.933594 94.214844 159.890625 94.480469 159.890625 94.820312 C 159.890625 95.304688 159.953125 95.757812 160.078125 96.183594 C 160.207031 96.613281 160.34375 97.039062 160.484375 97.464844 L 164.984375 109.828125 L 165.15625 109.828125 L 169.015625 100.660156 C 169.613281 99.242188 170.035156 98.105469 170.289062 97.25 C 170.546875 96.398438 170.671875 95.644531 170.671875 94.992188 C 170.671875 94.339844 170.503906 93.898438 170.164062 93.671875 C 169.824219 93.441406 169.089844 93.328125 167.957031 93.328125 L 167.957031 91.835938 L 176.402344 91.835938 L 176.402344 93.328125 C 175.949219 93.328125 175.539062 93.441406 175.171875 93.671875 C 174.804688 93.898438 174.480469 94.183594 174.195312 94.523438 C 173.96875 94.835938 173.734375 95.253906 173.492188 95.777344 C 173.253906 96.304688 173.011719 96.851562 172.769531 97.421875 C 172.53125 97.988281 172.3125 98.550781 172.117188 99.101562 C 171.917969 99.65625 171.734375 100.105469 171.5625 100.449219 L 165.324219 114.898438 Z M 197.066406 109.273438 L 198.382812 110.464844 C 195.976562 113.394531 192.992188 114.855469 189.425781 114.855469 C 187.757812 114.855469 186.242188 114.578125 184.882812 114.019531 C 183.527344 113.46875 182.359375 112.6875 181.386719 111.675781 C 180.40625 110.671875 179.648438 109.460938 179.109375 108.054688 C 178.574219 106.648438 178.304688 105.09375 178.304688 103.390625 C 178.304688 101.65625 178.585938 100.050781 179.152344 98.574219 C 179.71875 97.09375 180.519531 95.828125 181.554688 94.777344 C 182.585938 93.726562 183.816406 92.902344 185.25 92.304688 C 186.675781 91.710938 188.238281 91.410156 189.933594 91.410156 C 192.679688 91.410156 194.800781 92.15625 196.300781 93.644531 C 197.800781 95.140625 198.550781 97.28125 198.550781 100.0625 C 198.550781 100.460938 198.476562 100.703125 198.324219 100.789062 C 198.164062 100.875 197.800781 100.917969 197.234375 100.917969 L 183.269531 100.917969 C 183.214844 101.144531 183.171875 101.421875 183.144531 101.742188 C 183.113281 102.074219 183.101562 102.4375 183.101562 102.835938 C 183.101562 104.3125 183.277344 105.65625 183.636719 106.859375 C 183.988281 108.070312 184.496094 109.101562 185.164062 109.953125 C 185.824219 110.808594 186.617188 111.464844 187.539062 111.933594 C 188.457031 112.402344 189.480469 112.640625 190.613281 112.640625 C 191.800781 112.640625 192.90625 112.375 193.925781 111.847656 C 194.945312 111.324219 195.992188 110.464844 197.066406 109.273438 Z M 183.566406 98.957031 L 191.378906 98.957031 C 191.945312 98.957031 192.398438 98.941406 192.738281 98.914062 C 193.074219 98.886719 193.332031 98.828125 193.5 98.742188 C 193.671875 98.65625 193.785156 98.539062 193.839844 98.386719 C 193.898438 98.226562 193.925781 98.019531 193.925781 97.761719 C 193.925781 96.457031 193.507812 95.410156 192.675781 94.625 C 191.839844 93.847656 190.699219 93.457031 189.253906 93.457031 C 186.199219 93.457031 184.304688 95.289062 183.566406 98.957031 Z M 183.566406 98.957031 "/>
</g>
<g clip-path="url(#clip2)" clip-rule="nonzero">
<path style=" stroke:none;fill-rule:nonzero;fill:rgb(29.803923%,68.627453%,31.37255%);fill-opacity:1;" d="M 42.886719 130.054688 L 42.929688 130.054688 L 45.589844 123.980469 L 47.882812 123.980469 L 47.882812 124.371094 C 47.664062 124.375 47.488281 124.402344 47.355469 124.453125 C 47.222656 124.5 47.121094 124.582031 47.050781 124.695312 C 46.976562 124.808594 46.929688 124.960938 46.90625 125.160156 C 46.882812 125.359375 46.867188 125.613281 46.867188 125.921875 L 46.867188 129.949219 C 46.867188 130.292969 46.882812 130.5625 46.910156 130.761719 C 46.9375 130.960938 46.988281 131.113281 47.070312 131.222656 C 47.148438 131.335938 47.257812 131.40625 47.40625 131.441406 C 47.554688 131.472656 47.746094 131.496094 47.984375 131.503906 L 47.984375 131.890625 L 44.667969 131.890625 L 44.667969 131.503906 C 44.90625 131.496094 45.101562 131.472656 45.246094 131.433594 C 45.394531 131.398438 45.507812 131.328125 45.589844 131.222656 C 45.671875 131.121094 45.726562 130.976562 45.753906 130.785156 C 45.78125 130.597656 45.792969 130.34375 45.792969 130.023438 L 45.792969 125.253906 L 45.691406 125.253906 L 42.703125 131.996094 L 42.480469 131.996094 L 39.542969 125.253906 L 39.5 125.253906 L 39.5 129.949219 C 39.5 130.292969 39.515625 130.5625 39.542969 130.761719 C 39.570312 130.960938 39.621094 131.113281 39.703125 131.222656 C 39.777344 131.335938 39.890625 131.40625 40.039062 131.441406 C 40.183594 131.472656 40.378906 131.496094 40.617188 131.503906 L 40.617188 131.890625 L 37.761719 131.890625 L 37.761719 131.503906 C 38 131.496094 38.191406 131.472656 38.339844 131.433594 C 38.488281 131.398438 38.601562 131.328125 38.683594 131.222656 C 38.765625 131.121094 38.820312 130.976562 38.847656 130.785156 C 38.875 130.597656 38.886719 130.34375 38.886719 130.023438 L 38.886719 125.851562 C 38.886719 125.5625 38.875 125.324219 38.851562 125.132812 C 38.828125 124.945312 38.78125 124.796875 38.707031 124.6875 C 38.636719 124.578125 38.53125 124.5 38.394531 124.457031 C 38.257812 124.414062 38.082031 124.382812 37.863281 124.371094 L 37.863281 123.980469 L 40.308594 123.980469 Z M 52.027344 129.664062 L 52.027344 128.851562 C 51.636719 129 51.308594 129.148438 51.039062 129.292969 C 50.769531 129.4375 50.550781 129.582031 50.390625 129.722656 C 50.226562 129.867188 50.105469 130.011719 50.035156 130.15625 C 49.964844 130.300781 49.929688 130.445312 49.929688 130.597656 C 49.929688 130.824219 50.003906 131.007812 50.152344 131.152344 C 50.304688 131.296875 50.5 131.367188 50.746094 131.367188 C 50.925781 131.367188 51.089844 131.324219 51.242188 131.234375 C 51.398438 131.144531 51.53125 131.023438 51.648438 130.867188 C 51.761719 130.714844 51.855469 130.535156 51.925781 130.324219 C 51.992188 130.117188 52.027344 129.894531 52.027344 129.664062 Z M 50.550781 129.054688 L 52.027344 128.410156 L 52.027344 127.988281 C 52.027344 127.152344 51.671875 126.734375 50.960938 126.734375 C 50.847656 126.734375 50.746094 126.742188 50.664062 126.765625 C 50.582031 126.785156 50.515625 126.820312 50.460938 126.867188 C 50.40625 126.914062 50.355469 126.984375 50.3125 127.074219 C 50.265625 127.160156 50.226562 127.269531 50.183594 127.402344 C 50.109375 127.601562 50.035156 127.730469 49.964844 127.796875 C 49.890625 127.863281 49.789062 127.894531 49.652344 127.894531 C 49.3125 127.894531 49.140625 127.722656 49.140625 127.382812 C 49.140625 127.050781 49.316406 126.796875 49.664062 126.613281 C 50.011719 126.433594 50.503906 126.34375 51.144531 126.34375 C 51.828125 126.34375 52.3125 126.464844 52.597656 126.707031 C 52.886719 126.949219 53.027344 127.363281 53.027344 127.945312 L 53.027344 130.25 C 53.027344 131.027344 53.183594 131.417969 53.488281 131.417969 C 53.585938 131.417969 53.675781 131.40625 53.765625 131.382812 C 53.855469 131.359375 53.929688 131.296875 53.992188 131.195312 L 54.132812 131.441406 C 54.050781 131.597656 53.902344 131.730469 53.683594 131.835938 C 53.464844 131.941406 53.238281 131.996094 53 131.996094 C 52.699219 131.996094 52.472656 131.898438 52.328125 131.707031 C 52.179688 131.515625 52.109375 131.246094 52.109375 130.894531 L 52.058594 130.894531 C 51.878906 131.230469 51.632812 131.496094 51.320312 131.691406 C 51.007812 131.886719 50.660156 131.984375 50.277344 131.984375 C 49.847656 131.984375 49.507812 131.875 49.261719 131.65625 C 49.019531 131.4375 48.894531 131.140625 48.894531 130.773438 C 48.894531 130.609375 48.921875 130.449219 48.980469 130.300781 C 49.039062 130.148438 49.132812 130.003906 49.261719 129.867188 C 49.394531 129.730469 49.5625 129.59375 49.773438 129.460938 C 49.988281 129.328125 50.246094 129.191406 50.550781 129.054688 Z M 57.683594 131.890625 L 57.683594 131.53125 C 57.910156 131.53125 58.066406 131.523438 58.148438 131.503906 C 58.234375 131.480469 58.277344 131.453125 58.277344 131.417969 C 58.273438 131.363281 58.21875 131.265625 58.113281 131.121094 C 58.011719 130.976562 57.878906 130.804688 57.714844 130.609375 L 56.632812 129.292969 L 56.253906 129.652344 L 56.253906 130.257812 C 56.253906 130.527344 56.265625 130.738281 56.289062 130.898438 C 56.3125 131.0625 56.355469 131.1875 56.421875 131.28125 C 56.484375 131.375 56.582031 131.4375 56.707031 131.472656 C 56.832031 131.503906 57 131.527344 57.203125 131.53125 L 57.203125 131.890625 L 54.296875 131.890625 L 54.296875 131.53125 C 54.503906 131.527344 54.667969 131.503906 54.792969 131.472656 C 54.921875 131.4375 55.019531 131.375 55.089844 131.285156 C 55.164062 131.195312 55.210938 131.078125 55.238281 130.925781 C 55.265625 130.777344 55.28125 130.578125 55.28125 130.332031 L 55.28125 126.023438 C 55.28125 125.503906 55.273438 125.109375 55.265625 124.84375 C 55.253906 124.574219 55.21875 124.394531 55.15625 124.296875 C 55.097656 124.203125 54.992188 124.144531 54.851562 124.128906 C 54.707031 124.113281 54.515625 124.101562 54.277344 124.101562 L 54.277344 123.753906 L 56.253906 123.363281 L 56.253906 129.003906 L 57.203125 128.070312 C 57.511719 127.761719 57.738281 127.53125 57.890625 127.386719 C 58.039062 127.238281 58.113281 127.128906 58.113281 127.050781 C 58.113281 126.976562 58.042969 126.917969 57.898438 126.871094 C 57.757812 126.828125 57.550781 126.804688 57.285156 126.804688 L 57.285156 126.445312 L 59.945312 126.445312 L 59.945312 126.804688 C 59.816406 126.804688 59.703125 126.8125 59.609375 126.824219 C 59.511719 126.839844 59.421875 126.867188 59.335938 126.90625 C 59.253906 126.949219 59.164062 127.003906 59.066406 127.078125 C 58.972656 127.148438 58.863281 127.242188 58.738281 127.351562 L 57.265625 128.664062 L 59.292969 130.96875 C 59.386719 131.085938 59.472656 131.179688 59.550781 131.25 C 59.632812 131.320312 59.710938 131.378906 59.785156 131.417969 C 59.867188 131.460938 59.953125 131.488281 60.042969 131.507812 C 60.136719 131.523438 60.246094 131.53125 60.375 131.53125 L 60.375 131.890625 Z M 65.070312 130.648438 L 65.390625 130.9375 C 64.808594 131.640625 64.089844 131.996094 63.230469 131.996094 C 62.828125 131.996094 62.460938 131.929688 62.132812 131.792969 C 61.808594 131.660156 61.527344 131.472656 61.292969 131.230469 C 61.054688 130.984375 60.871094 130.695312 60.742188 130.355469 C 60.613281 130.015625 60.546875 129.640625 60.546875 129.230469 C 60.546875 128.8125 60.617188 128.425781 60.753906 128.070312 C 60.890625 127.714844 61.082031 127.410156 61.332031 127.15625 C 61.582031 126.902344 61.878906 126.703125 62.222656 126.558594 C 62.566406 126.414062 62.941406 126.34375 63.351562 126.34375 C 64.015625 126.34375 64.527344 126.523438 64.886719 126.882812 C 65.25 127.242188 65.429688 127.757812 65.429688 128.429688 C 65.429688 128.523438 65.410156 128.582031 65.375 128.605469 C 65.335938 128.625 65.25 128.632812 65.113281 128.632812 L 61.746094 128.632812 C 61.730469 128.691406 61.722656 128.757812 61.714844 128.835938 C 61.707031 128.914062 61.703125 129 61.703125 129.097656 C 61.703125 129.453125 61.746094 129.777344 61.832031 130.066406 C 61.917969 130.359375 62.042969 130.609375 62.203125 130.8125 C 62.363281 131.019531 62.554688 131.179688 62.773438 131.289062 C 62.996094 131.402344 63.242188 131.460938 63.515625 131.460938 C 63.800781 131.460938 64.070312 131.398438 64.3125 131.269531 C 64.558594 131.144531 64.8125 130.9375 65.070312 130.648438 Z M 61.816406 128.160156 L 63.699219 128.160156 C 63.835938 128.160156 63.945312 128.160156 64.027344 128.152344 C 64.109375 128.144531 64.171875 128.132812 64.210938 128.109375 C 64.253906 128.089844 64.28125 128.0625 64.292969 128.023438 C 64.308594 127.984375 64.3125 127.9375 64.3125 127.875 C 64.3125 127.558594 64.214844 127.308594 64.011719 127.117188 C 63.8125 126.929688 63.535156 126.835938 63.1875 126.835938 C 62.453125 126.835938 61.996094 127.277344 61.816406 128.160156 Z M 71.507812 124.597656 L 71.507812 127.546875 C 71.875 127.546875 72.183594 127.523438 72.433594 127.476562 C 72.683594 127.433594 72.878906 127.363281 73.027344 127.269531 C 73.175781 127.171875 73.28125 127.046875 73.34375 126.898438 C 73.410156 126.746094 73.441406 126.570312 73.441406 126.363281 L 73.800781 126.363281 L 73.800781 129.167969 L 73.441406 129.167969 C 73.441406 128.964844 73.414062 128.785156 73.355469 128.632812 C 73.296875 128.484375 73.195312 128.359375 73.046875 128.257812 C 72.902344 128.160156 72.703125 128.085938 72.453125 128.03125 C 72.207031 127.980469 71.890625 127.957031 71.507812 127.957031 L 71.507812 130.277344 C 71.507812 130.503906 71.535156 130.691406 71.589844 130.839844 C 71.644531 130.984375 71.738281 131.105469 71.871094 131.199219 C 72.003906 131.289062 72.179688 131.355469 72.398438 131.394531 C 72.617188 131.429688 72.886719 131.449219 73.207031 131.449219 C 73.570312 131.449219 73.875 131.425781 74.128906 131.371094 C 74.378906 131.320312 74.589844 131.234375 74.761719 131.113281 C 74.933594 130.988281 75.070312 130.824219 75.171875 130.621094 C 75.273438 130.421875 75.359375 130.167969 75.425781 129.867188 L 75.816406 129.867188 L 75.664062 131.890625 L 69.308594 131.890625 L 69.308594 131.503906 C 69.546875 131.496094 69.738281 131.472656 69.886719 131.441406 C 70.03125 131.40625 70.148438 131.347656 70.230469 131.265625 C 70.3125 131.183594 70.367188 131.066406 70.394531 130.917969 C 70.421875 130.765625 70.433594 130.570312 70.433594 130.332031 L 70.433594 125.542969 C 70.433594 125.300781 70.421875 125.109375 70.398438 124.960938 C 70.375 124.8125 70.324219 124.695312 70.253906 124.609375 C 70.183594 124.523438 70.078125 124.46875 69.941406 124.4375 C 69.804688 124.40625 69.628906 124.382812 69.410156 124.371094 L 69.410156 123.980469 L 75.324219 123.980469 L 75.417969 125.789062 L 75.058594 125.789062 C 75.019531 125.515625 74.953125 125.289062 74.859375 125.113281 C 74.765625 124.941406 74.640625 124.800781 74.480469 124.699219 C 74.320312 124.597656 74.117188 124.523438 73.871094 124.484375 C 73.625 124.441406 73.328125 124.421875 72.980469 124.421875 L 71.683594 124.421875 C 71.566406 124.421875 71.507812 124.480469 71.507812 124.597656 Z M 78.875 132.003906 L 77.148438 127.71875 C 77.066406 127.515625 76.992188 127.351562 76.925781 127.230469 C 76.863281 127.113281 76.792969 127.019531 76.71875 126.960938 C 76.640625 126.898438 76.558594 126.859375 76.464844 126.839844 C 76.375 126.824219 76.261719 126.8125 76.132812 126.804688 L 76.132812 126.445312 L 78.84375 126.445312 L 78.84375 126.804688 C 78.707031 126.8125 78.597656 126.820312 78.507812 126.824219 C 78.417969 126.832031 78.347656 126.847656 78.296875 126.871094 C 78.246094 126.894531 78.210938 126.929688 78.191406 126.972656 C 78.171875 127.019531 78.160156 127.082031 78.160156 127.164062 C 78.160156 127.28125 78.175781 127.390625 78.203125 127.492188 C 78.234375 127.597656 78.269531 127.699219 78.304688 127.800781 L 79.386719 130.78125 L 79.429688 130.78125 L 80.359375 128.574219 C 80.503906 128.230469 80.605469 127.957031 80.667969 127.75 C 80.726562 127.546875 80.757812 127.363281 80.757812 127.207031 C 80.757812 127.046875 80.71875 126.941406 80.636719 126.886719 C 80.554688 126.832031 80.375 126.804688 80.105469 126.804688 L 80.105469 126.445312 L 82.140625 126.445312 L 82.140625 126.804688 C 82.03125 126.804688 81.933594 126.832031 81.84375 126.886719 C 81.753906 126.941406 81.675781 127.011719 81.609375 127.09375 C 81.554688 127.167969 81.496094 127.269531 81.4375 127.394531 C 81.382812 127.523438 81.324219 127.65625 81.265625 127.792969 C 81.207031 127.929688 81.15625 128.0625 81.105469 128.195312 C 81.058594 128.332031 81.015625 128.4375 80.972656 128.523438 L 79.46875 132.003906 Z M 87.121094 130.648438 L 87.4375 130.9375 C 86.859375 131.640625 86.140625 131.996094 85.28125 131.996094 C 84.878906 131.996094 84.511719 131.929688 84.183594 131.792969 C 83.859375 131.660156 83.578125 131.472656 83.34375 131.230469 C 83.105469 130.984375 82.921875 130.695312 82.792969 130.355469 C 82.664062 130.015625 82.597656 129.640625 82.597656 129.230469 C 82.597656 128.8125 82.667969 128.425781 82.804688 128.070312 C 82.941406 127.714844 83.132812 127.410156 83.382812 127.15625 C 83.632812 126.902344 83.929688 126.703125 84.273438 126.558594 C 84.617188 126.414062 84.992188 126.34375 85.402344 126.34375 C 86.066406 126.34375 86.574219 126.523438 86.9375 126.882812 C 87.300781 127.242188 87.480469 127.757812 87.480469 128.429688 C 87.480469 128.523438 87.460938 128.582031 87.425781 128.605469 C 87.386719 128.625 87.300781 128.632812 87.164062 128.632812 L 83.796875 128.632812 C 83.78125 128.691406 83.773438 128.757812 83.765625 128.835938 C 83.757812 128.914062 83.753906 129 83.753906 129.097656 C 83.753906 129.453125 83.796875 129.777344 83.882812 130.066406 C 83.96875 130.359375 84.089844 130.609375 84.253906 130.8125 C 84.414062 131.019531 84.601562 131.179688 84.824219 131.289062 C 85.046875 131.402344 85.292969 131.460938 85.566406 131.460938 C 85.851562 131.460938 86.117188 131.398438 86.363281 131.269531 C 86.609375 131.144531 86.863281 130.9375 87.121094 130.648438 Z M 83.867188 128.160156 L 85.75 128.160156 C 85.886719 128.160156 85.996094 128.160156 86.078125 128.152344 C 86.160156 128.144531 86.222656 128.132812 86.261719 128.109375 C 86.304688 128.089844 86.332031 128.0625 86.34375 128.023438 C 86.359375 127.984375 86.363281 127.9375 86.363281 127.875 C 86.363281 127.558594 86.265625 127.308594 86.0625 127.117188 C 85.863281 126.929688 85.585938 126.835938 85.238281 126.835938 C 84.503906 126.835938 84.046875 127.277344 83.867188 128.160156 Z M 90.234375 129.910156 L 90.234375 130.257812 C 90.234375 130.539062 90.238281 130.761719 90.253906 130.925781 C 90.265625 131.089844 90.304688 131.214844 90.363281 131.300781 C 90.417969 131.386719 90.503906 131.445312 90.613281 131.472656 C 90.71875 131.5 90.875 131.519531 91.070312 131.53125 L 91.070312 131.890625 L 88.351562 131.890625 L 88.351562 131.53125 C 88.546875 131.527344 88.703125 131.507812 88.820312 131.476562 C 88.9375 131.445312 89.023438 131.390625 89.085938 131.308594 C 89.148438 131.222656 89.1875 131.105469 89.207031 130.949219 C 89.222656 130.796875 89.230469 130.589844 89.230469 130.332031 L 89.230469 129.128906 C 89.230469 128.660156 89.226562 128.300781 89.214844 128.039062 C 89.203125 127.777344 89.171875 127.585938 89.113281 127.464844 C 89.054688 127.339844 88.964844 127.265625 88.839844 127.242188 C 88.71875 127.21875 88.546875 127.207031 88.328125 127.207031 L 88.328125 126.847656 L 90.121094 126.457031 L 90.261719 127.730469 L 90.304688 127.730469 C 90.394531 127.523438 90.503906 127.335938 90.636719 127.164062 C 90.769531 126.992188 90.914062 126.847656 91.070312 126.726562 C 91.230469 126.609375 91.390625 126.515625 91.5625 126.445312 C 91.734375 126.378906 91.90625 126.34375 92.085938 126.34375 C 92.304688 126.34375 92.476562 126.394531 92.601562 126.5 C 92.726562 126.609375 92.792969 126.75 92.792969 126.929688 C 92.792969 127.09375 92.738281 127.222656 92.636719 127.3125 C 92.535156 127.40625 92.386719 127.453125 92.199219 127.453125 C 92.089844 127.453125 91.996094 127.4375 91.921875 127.410156 C 91.847656 127.382812 91.78125 127.355469 91.722656 127.324219 C 91.664062 127.292969 91.609375 127.265625 91.558594 127.238281 C 91.507812 127.210938 91.449219 127.195312 91.390625 127.195312 C 91.203125 127.195312 91.019531 127.3125 90.835938 127.550781 C 90.652344 127.785156 90.507812 128.085938 90.40625 128.449219 C 90.351562 128.648438 90.308594 128.871094 90.28125 129.121094 C 90.25 129.371094 90.234375 129.636719 90.234375 129.910156 Z M 97.949219 128.523438 L 95.71875 133.507812 C 95.402344 134.210938 94.917969 134.566406 94.253906 134.566406 C 93.824219 134.566406 93.609375 134.402344 93.609375 134.082031 C 93.609375 133.910156 93.667969 133.785156 93.789062 133.707031 C 93.90625 133.628906 94.128906 133.5625 94.449219 133.507812 C 94.59375 133.484375 94.714844 133.457031 94.816406 133.417969 C 94.917969 133.382812 95.011719 133.332031 95.09375 133.277344 C 95.175781 133.21875 95.25 133.144531 95.3125 133.054688 C 95.378906 132.964844 95.441406 132.855469 95.503906 132.726562 L 95.859375 132.003906 L 93.894531 127.71875 C 93.808594 127.527344 93.730469 127.375 93.664062 127.261719 C 93.601562 127.148438 93.53125 127.058594 93.460938 126.996094 C 93.390625 126.929688 93.308594 126.886719 93.222656 126.859375 C 93.132812 126.835938 93.019531 126.820312 92.882812 126.804688 L 92.882812 126.445312 L 95.59375 126.445312 L 95.59375 126.804688 C 95.136719 126.804688 94.910156 126.917969 94.910156 127.144531 C 94.910156 127.234375 94.9375 127.375 94.992188 127.566406 C 95.046875 127.757812 95.113281 127.953125 95.195312 128.152344 L 96.320312 130.886719 L 96.371094 130.886719 L 97.304688 128.574219 C 97.394531 128.347656 97.464844 128.160156 97.523438 128.019531 C 97.582031 127.875 97.625 127.753906 97.65625 127.664062 C 97.6875 127.570312 97.707031 127.492188 97.71875 127.433594 C 97.726562 127.371094 97.734375 127.3125 97.734375 127.257812 C 97.734375 127.078125 97.683594 126.960938 97.585938 126.898438 C 97.484375 126.835938 97.296875 126.804688 97.015625 126.804688 L 97.015625 126.445312 L 99.269531 126.445312 L 99.269531 126.804688 C 99.140625 126.804688 99.03125 126.824219 98.941406 126.855469 C 98.851562 126.890625 98.761719 126.96875 98.667969 127.085938 C 98.578125 127.207031 98.476562 127.382812 98.363281 127.605469 C 98.25 127.832031 98.113281 128.136719 97.949219 128.523438 Z M 109.632812 123.980469 L 109.734375 125.941406 L 109.316406 125.941406 C 109.296875 125.648438 109.246094 125.402344 109.171875 125.203125 C 109.097656 125.003906 108.988281 124.847656 108.851562 124.734375 C 108.710938 124.621094 108.535156 124.542969 108.324219 124.492188 C 108.113281 124.445312 107.859375 124.421875 107.566406 124.421875 C 107.3125 124.421875 107.109375 124.425781 106.957031 124.4375 C 106.804688 124.445312 106.6875 124.464844 106.605469 124.492188 C 106.523438 124.519531 106.46875 124.554688 106.445312 124.589844 C 106.421875 124.628906 106.410156 124.679688 106.410156 124.738281 L 106.410156 130.238281 C 106.410156 130.457031 106.425781 130.644531 106.457031 130.804688 C 106.488281 130.960938 106.546875 131.089844 106.640625 131.1875 C 106.730469 131.289062 106.863281 131.363281 107.039062 131.414062 C 107.214844 131.464844 107.441406 131.496094 107.730469 131.503906 L 107.730469 131.890625 L 103.863281 131.890625 L 103.863281 131.503906 C 104.148438 131.496094 104.378906 131.464844 104.558594 131.414062 C 104.734375 131.363281 104.871094 131.289062 104.960938 131.1875 C 105.054688 131.089844 105.117188 130.960938 105.148438 130.804688 C 105.175781 130.644531 105.191406 130.457031 105.191406 130.238281 L 105.191406 124.738281 C 105.191406 124.679688 105.179688 124.628906 105.15625 124.589844 C 105.132812 124.554688 105.085938 124.519531 105.011719 124.492188 C 104.941406 124.464844 104.839844 124.445312 104.710938 124.4375 C 104.582031 124.425781 104.40625 124.421875 104.1875 124.421875 C 103.921875 124.421875 103.675781 124.429688 103.449219 124.453125 C 103.21875 124.472656 103.019531 124.53125 102.855469 124.628906 C 102.6875 124.730469 102.550781 124.882812 102.449219 125.089844 C 102.347656 125.292969 102.292969 125.578125 102.285156 125.941406 L 101.90625 125.941406 L 101.90625 123.980469 Z M 112.417969 129.664062 L 112.417969 128.851562 C 112.027344 129 111.699219 129.148438 111.429688 129.292969 C 111.160156 129.4375 110.941406 129.582031 110.777344 129.722656 C 110.617188 129.867188 110.496094 130.011719 110.425781 130.15625 C 110.355469 130.300781 110.320312 130.445312 110.320312 130.597656 C 110.320312 130.824219 110.394531 131.007812 110.542969 131.152344 C 110.695312 131.296875 110.890625 131.367188 111.136719 131.367188 C 111.316406 131.367188 111.480469 131.324219 111.632812 131.234375 C 111.789062 131.144531 111.921875 131.023438 112.039062 130.867188 C 112.152344 130.714844 112.246094 130.535156 112.3125 130.324219 C 112.382812 130.117188 112.417969 129.894531 112.417969 129.664062 Z M 110.941406 129.054688 L 112.417969 128.410156 L 112.417969 127.988281 C 112.417969 127.152344 112.0625 126.734375 111.351562 126.734375 C 111.234375 126.734375 111.136719 126.742188 111.054688 126.765625 C 110.972656 126.785156 110.90625 126.820312 110.851562 126.867188 C 110.796875 126.914062 110.746094 126.984375 110.703125 127.074219 C 110.660156 127.160156 110.617188 127.269531 110.574219 127.402344 C 110.5 127.601562 110.425781 127.730469 110.355469 127.796875 C 110.28125 127.863281 110.179688 127.894531 110.042969 127.894531 C 109.699219 127.894531 109.53125 127.722656 109.53125 127.382812 C 109.53125 127.050781 109.703125 126.796875 110.050781 126.613281 C 110.398438 126.433594 110.894531 126.34375 111.535156 126.34375 C 112.21875 126.34375 112.703125 126.464844 112.988281 126.707031 C 113.277344 126.949219 113.417969 127.363281 113.417969 127.945312 L 113.417969 130.25 C 113.417969 131.027344 113.574219 131.417969 113.878906 131.417969 C 113.976562 131.417969 114.066406 131.40625 114.15625 131.382812 C 114.246094 131.359375 114.320312 131.296875 114.382812 131.195312 L 114.523438 131.441406 C 114.441406 131.597656 114.292969 131.730469 114.074219 131.835938 C 113.855469 131.941406 113.628906 131.996094 113.386719 131.996094 C 113.089844 131.996094 112.863281 131.898438 112.71875 131.707031 C 112.570312 131.515625 112.5 131.246094 112.5 130.894531 L 112.445312 130.894531 C 112.269531 131.230469 112.023438 131.496094 111.710938 131.691406 C 111.394531 131.886719 111.046875 131.984375 110.667969 131.984375 C 110.238281 131.984375 109.898438 131.875 109.652344 131.65625 C 109.40625 131.4375 109.285156 131.140625 109.285156 130.773438 C 109.285156 130.609375 109.3125 130.449219 109.371094 130.300781 C 109.429688 130.148438 109.523438 130.003906 109.652344 129.867188 C 109.78125 129.730469 109.953125 129.59375 110.164062 129.460938 C 110.375 129.328125 110.636719 129.191406 110.941406 129.054688 Z M 115.597656 131.53125 L 115.394531 131.890625 L 115.167969 131.890625 L 115.167969 130.125 L 115.425781 130.125 C 115.691406 131.089844 116.175781 131.574219 116.878906 131.574219 C 117.152344 131.574219 117.367188 131.507812 117.527344 131.371094 C 117.6875 131.238281 117.769531 131.035156 117.769531 130.761719 C 117.769531 130.660156 117.753906 130.570312 117.722656 130.5 C 117.691406 130.425781 117.632812 130.351562 117.546875 130.273438 C 117.460938 130.195312 117.34375 130.105469 117.1875 130 C 117.035156 129.898438 116.832031 129.769531 116.582031 129.609375 C 116.347656 129.46875 116.148438 129.332031 115.976562 129.210938 C 115.808594 129.085938 115.664062 128.960938 115.546875 128.835938 C 115.433594 128.707031 115.34375 128.574219 115.285156 128.429688 C 115.226562 128.285156 115.199219 128.117188 115.199219 127.925781 C 115.199219 127.691406 115.238281 127.476562 115.316406 127.28125 C 115.394531 127.085938 115.503906 126.921875 115.640625 126.785156 C 115.777344 126.648438 115.9375 126.539062 116.121094 126.460938 C 116.304688 126.382812 116.507812 126.34375 116.722656 126.34375 C 116.910156 126.34375 117.101562 126.371094 117.296875 126.429688 C 117.496094 126.488281 117.667969 126.566406 117.820312 126.660156 L 118.023438 126.445312 L 118.21875 126.445312 L 118.21875 127.925781 L 117.953125 127.925781 C 117.800781 127.507812 117.636719 127.210938 117.460938 127.03125 C 117.285156 126.851562 117.066406 126.765625 116.804688 126.765625 C 116.574219 126.765625 116.386719 126.824219 116.246094 126.949219 C 116.109375 127.074219 116.039062 127.242188 116.039062 127.464844 C 116.039062 127.578125 116.058594 127.679688 116.09375 127.765625 C 116.132812 127.851562 116.191406 127.9375 116.273438 128.019531 C 116.355469 128.101562 116.460938 128.183594 116.585938 128.269531 C 116.710938 128.355469 116.863281 128.453125 117.042969 128.5625 C 117.335938 128.746094 117.585938 128.914062 117.792969 129.054688 C 118 129.199219 118.171875 129.339844 118.300781 129.480469 C 118.429688 129.621094 118.527344 129.769531 118.585938 129.917969 C 118.648438 130.070312 118.679688 130.242188 118.679688 130.433594 C 118.679688 130.917969 118.523438 131.300781 118.207031 131.578125 C 117.894531 131.855469 117.480469 131.996094 116.96875 131.996094 C 116.4375 131.996094 115.980469 131.839844 115.597656 131.53125 Z M 122.722656 131.890625 L 122.722656 131.53125 C 122.945312 131.53125 123.101562 131.523438 123.1875 131.503906 C 123.273438 131.480469 123.316406 131.453125 123.316406 131.417969 C 123.308594 131.363281 123.253906 131.265625 123.152344 131.121094 C 123.046875 130.976562 122.914062 130.804688 122.75 130.609375 L 121.667969 129.292969 L 121.289062 129.652344 L 121.289062 130.257812 C 121.289062 130.527344 121.300781 130.738281 121.324219 130.898438 C 121.347656 131.0625 121.390625 131.1875 121.457031 131.28125 C 121.523438 131.375 121.617188 131.4375 121.742188 131.472656 C 121.871094 131.503906 122.035156 131.527344 122.238281 131.53125 L 122.238281 131.890625 L 119.332031 131.890625 L 119.332031 131.53125 C 119.539062 131.527344 119.703125 131.503906 119.828125 131.472656 C 119.957031 131.4375 120.054688 131.375 120.125 131.285156 C 120.199219 131.195312 120.25 131.078125 120.273438 130.925781 C 120.300781 130.777344 120.316406 130.578125 120.316406 130.332031 L 120.316406 126.023438 C 120.316406 125.503906 120.3125 125.109375 120.300781 124.84375 C 120.289062 124.574219 120.253906 124.394531 120.195312 124.296875 C 120.132812 124.203125 120.03125 124.144531 119.886719 124.128906 C 119.742188 124.113281 119.550781 124.101562 119.3125 124.101562 L 119.3125 123.753906 L 121.289062 123.363281 L 121.289062 129.003906 L 122.238281 128.070312 C 122.546875 127.761719 122.777344 127.53125 122.925781 127.386719 C 123.074219 127.238281 123.152344 127.128906 123.152344 127.050781 C 123.152344 126.976562 123.078125 126.917969 122.9375 126.871094 C 122.792969 126.828125 122.589844 126.804688 122.320312 126.804688 L 122.320312 126.445312 L 124.984375 126.445312 L 124.984375 126.804688 C 124.851562 126.804688 124.742188 126.8125 124.644531 126.824219 C 124.550781 126.839844 124.457031 126.867188 124.371094 126.90625 C 124.289062 126.949219 124.199219 127.003906 124.101562 127.078125 C 124.007812 127.148438 123.898438 127.242188 123.773438 127.351562 L 122.300781 128.664062 L 124.328125 130.96875 C 124.421875 131.085938 124.511719 131.179688 124.585938 131.25 C 124.667969 131.320312 124.746094 131.378906 124.824219 131.417969 C 124.902344 131.460938 124.988281 131.488281 125.078125 131.507812 C 125.171875 131.523438 125.28125 131.53125 125.414062 131.53125 L 125.414062 131.890625 Z M 135.121094 124.617188 L 135.304688 123.980469 L 135.59375 123.980469 L 135.683594 126.34375 L 135.304688 126.34375 C 135.15625 125.738281 134.867188 125.265625 134.4375 124.925781 C 134.007812 124.582031 133.488281 124.410156 132.878906 124.410156 C 132.464844 124.410156 132.09375 124.492188 131.765625 124.65625 C 131.4375 124.820312 131.160156 125.058594 130.9375 125.367188 C 130.710938 125.675781 130.539062 126.050781 130.421875 126.496094 C 130.300781 126.941406 130.242188 127.445312 130.242188 128.007812 C 130.242188 129.109375 130.46875 129.957031 130.925781 130.550781 C 131.382812 131.144531 132.042969 131.441406 132.910156 131.441406 C 134.226562 131.441406 135.074219 130.738281 135.449219 129.332031 L 135.867188 129.332031 L 135.867188 131.890625 L 135.511719 131.890625 L 135.273438 131.082031 C 134.558594 131.691406 133.691406 131.996094 132.675781 131.996094 C 132.097656 131.996094 131.574219 131.902344 131.105469 131.71875 C 130.636719 131.53125 130.238281 131.269531 129.910156 130.933594 C 129.578125 130.59375 129.320312 130.179688 129.140625 129.691406 C 128.960938 129.207031 128.871094 128.664062 128.871094 128.070312 C 128.871094 127.445312 128.964844 126.878906 129.15625 126.363281 C 129.347656 125.851562 129.613281 125.40625 129.960938 125.039062 C 130.304688 124.667969 130.714844 124.382812 131.199219 124.179688 C 131.679688 123.976562 132.207031 123.875 132.789062 123.875 C 133.199219 123.875 133.582031 123.933594 133.945312 124.050781 C 134.304688 124.167969 134.699219 124.355469 135.121094 124.617188 Z M 139.789062 126.34375 C 140.175781 126.34375 140.546875 126.414062 140.894531 126.550781 C 141.242188 126.695312 141.546875 126.886719 141.808594 127.132812 C 142.070312 127.382812 142.28125 127.671875 142.433594 128.011719 C 142.585938 128.351562 142.664062 128.722656 142.664062 129.128906 C 142.664062 129.546875 142.585938 129.929688 142.433594 130.277344 C 142.28125 130.628906 142.070312 130.929688 141.808594 131.183594 C 141.546875 131.4375 141.242188 131.636719 140.894531 131.78125 C 140.546875 131.921875 140.175781 131.996094 139.789062 131.996094 C 139.40625 131.996094 139.042969 131.925781 138.695312 131.785156 C 138.351562 131.644531 138.050781 131.445312 137.792969 131.195312 C 137.535156 130.941406 137.328125 130.636719 137.179688 130.28125 C 137.027344 129.929688 136.953125 129.546875 136.953125 129.128906 C 136.953125 128.722656 137.027344 128.351562 137.179688 128.007812 C 137.328125 127.664062 137.535156 127.371094 137.792969 127.125 C 138.050781 126.878906 138.351562 126.683594 138.695312 126.546875 C 139.042969 126.410156 139.40625 126.34375 139.789062 126.34375 Z M 139.789062 126.835938 C 139.535156 126.835938 139.304688 126.890625 139.097656 127 C 138.890625 127.109375 138.710938 127.265625 138.5625 127.46875 C 138.417969 127.671875 138.304688 127.914062 138.226562 128.195312 C 138.148438 128.480469 138.109375 128.796875 138.109375 129.136719 C 138.109375 129.496094 138.148438 129.816406 138.226562 130.105469 C 138.304688 130.390625 138.417969 130.636719 138.5625 130.839844 C 138.710938 131.039062 138.886719 131.195312 139.09375 131.308594 C 139.296875 131.417969 139.527344 131.472656 139.789062 131.472656 C 140.046875 131.472656 140.28125 131.417969 140.492188 131.308594 C 140.707031 131.195312 140.886719 131.039062 141.035156 130.832031 C 141.1875 130.628906 141.300781 130.382812 141.382812 130.09375 C 141.464844 129.804688 141.507812 129.488281 141.507812 129.136719 C 141.507812 128.796875 141.464844 128.484375 141.382812 128.203125 C 141.300781 127.921875 141.1875 127.679688 141.035156 127.476562 C 140.886719 127.277344 140.707031 127.117188 140.492188 127.003906 C 140.28125 126.890625 140.046875 126.835938 139.789062 126.835938 Z M 147.894531 129.097656 L 147.894531 128.089844 C 147.894531 127.808594 147.886719 127.585938 147.871094 127.425781 C 147.859375 127.265625 147.824219 127.140625 147.765625 127.054688 C 147.707031 126.972656 147.621094 126.914062 147.507812 126.882812 C 147.394531 126.851562 147.242188 126.824219 147.042969 126.804688 L 147.042969 126.445312 L 148.894531 126.445312 L 148.894531 129.601562 C 148.894531 129.992188 148.898438 130.308594 148.910156 130.554688 C 148.921875 130.804688 148.9375 130.988281 148.957031 131.113281 C 148.96875 131.199219 148.992188 131.269531 149.023438 131.320312 C 149.054688 131.375 149.101562 131.414062 149.160156 131.445312 C 149.222656 131.476562 149.300781 131.496094 149.402344 131.507812 C 149.5 131.515625 149.628906 131.523438 149.785156 131.523438 L 149.785156 131.882812 L 148.097656 132.003906 L 147.984375 130.773438 L 147.945312 130.773438 C 147.683594 131.195312 147.386719 131.507812 147.046875 131.703125 C 146.710938 131.898438 146.355469 131.996094 145.988281 131.996094 C 145.703125 131.996094 145.425781 131.941406 145.152344 131.832031 C 144.882812 131.722656 144.679688 131.574219 144.542969 131.390625 C 144.429688 131.238281 144.347656 131.027344 144.292969 130.761719 C 144.246094 130.496094 144.21875 130.148438 144.21875 129.722656 L 144.21875 128.089844 C 144.21875 127.808594 144.210938 127.585938 144.199219 127.425781 C 144.183594 127.265625 144.148438 127.140625 144.089844 127.054688 C 144.03125 126.972656 143.949219 126.914062 143.835938 126.882812 C 143.722656 126.851562 143.566406 126.824219 143.367188 126.804688 L 143.367188 126.445312 L 145.222656 126.445312 L 145.222656 129.25 C 145.222656 130 145.308594 130.539062 145.480469 130.875 C 145.65625 131.210938 145.933594 131.378906 146.316406 131.378906 C 146.917969 131.378906 147.382812 130.984375 147.714844 130.195312 C 147.75 130.113281 147.777344 130.039062 147.800781 129.96875 C 147.820312 129.902344 147.839844 129.828125 147.851562 129.746094 C 147.863281 129.664062 147.875 129.570312 147.882812 129.46875 C 147.890625 129.363281 147.894531 129.242188 147.894531 129.097656 Z M 152.21875 128.902344 L 152.21875 130.277344 C 152.21875 130.558594 152.226562 130.78125 152.238281 130.941406 C 152.253906 131.101562 152.289062 131.226562 152.347656 131.3125 C 152.40625 131.398438 152.492188 131.453125 152.605469 131.480469 C 152.714844 131.507812 152.871094 131.53125 153.070312 131.542969 L 153.070312 131.890625 L 150.386719 131.890625 L 150.386719 131.542969 C 150.578125 131.53125 150.730469 131.507812 150.84375 131.480469 C 150.957031 131.453125 151.042969 131.398438 151.105469 131.316406 C 151.164062 131.234375 151.203125 131.117188 151.222656 130.96875 C 151.238281 130.816406 151.246094 130.609375 151.246094 130.351562 L 151.246094 128.984375 C 151.246094 128.167969 151.226562 127.671875 151.1875 127.492188 C 151.164062 127.40625 151.140625 127.332031 151.109375 127.273438 C 151.078125 127.214844 151.03125 127.167969 150.972656 127.136719 C 150.910156 127.109375 150.832031 127.085938 150.734375 127.078125 C 150.640625 127.066406 150.515625 127.0625 150.367188 127.0625 L 150.367188 126.734375 L 152.003906 126.34375 L 152.128906 127.359375 L 152.167969 127.359375 C 152.425781 127.039062 152.730469 126.789062 153.078125 126.609375 C 153.425781 126.433594 153.804688 126.34375 154.214844 126.34375 C 154.527344 126.34375 154.816406 126.394531 155.074219 126.496094 C 155.332031 126.601562 155.53125 126.742188 155.667969 126.917969 C 155.785156 127.074219 155.867188 127.28125 155.914062 127.527344 C 155.960938 127.78125 155.984375 128.125 155.984375 128.5625 L 155.984375 130.277344 C 155.984375 130.558594 155.992188 130.78125 156.011719 130.941406 C 156.027344 131.101562 156.0625 131.226562 156.117188 131.3125 C 156.171875 131.398438 156.257812 131.453125 156.371094 131.480469 C 156.480469 131.507812 156.628906 131.53125 156.8125 131.542969 L 156.8125 131.890625 L 154.164062 131.890625 L 154.164062 131.542969 C 154.355469 131.535156 154.507812 131.515625 154.621094 131.484375 C 154.730469 131.457031 154.816406 131.398438 154.875 131.316406 C 154.933594 131.234375 154.96875 131.117188 154.988281 130.960938 C 155.003906 130.808594 155.011719 130.605469 155.011719 130.351562 L 155.011719 128.996094 C 155.011719 128.605469 154.992188 128.273438 154.953125 128.007812 C 154.910156 127.742188 154.84375 127.523438 154.753906 127.359375 C 154.660156 127.195312 154.539062 127.078125 154.386719 127.003906 C 154.238281 126.933594 154.058594 126.898438 153.847656 126.898438 C 153.539062 126.898438 153.257812 126.976562 153.003906 127.136719 C 152.746094 127.300781 152.546875 127.519531 152.402344 127.800781 C 152.371094 127.871094 152.339844 127.9375 152.316406 127.996094 C 152.292969 128.058594 152.273438 128.132812 152.261719 128.214844 C 152.246094 128.296875 152.234375 128.390625 152.230469 128.496094 C 152.222656 128.601562 152.21875 128.738281 152.21875 128.902344 Z M 158.082031 127.09375 L 157.46875 127.09375 L 157.46875 126.714844 C 157.832031 126.5 158.113281 126.289062 158.316406 126.074219 C 158.523438 125.863281 158.679688 125.609375 158.789062 125.316406 L 159.085938 125.316406 L 159.085938 126.609375 L 160.457031 126.609375 L 160.457031 127.09375 L 159.085938 127.09375 L 159.085938 130.21875 C 159.085938 130.457031 159.097656 130.660156 159.121094 130.824219 C 159.144531 130.988281 159.183594 131.121094 159.238281 131.21875 C 159.292969 131.316406 159.367188 131.390625 159.453125 131.429688 C 159.542969 131.472656 159.65625 131.492188 159.792969 131.492188 C 159.960938 131.492188 160.109375 131.457031 160.226562 131.382812 C 160.347656 131.3125 160.464844 131.191406 160.578125 131.019531 L 160.835938 131.214844 C 160.738281 131.46875 160.574219 131.660156 160.339844 131.792969 C 160.105469 131.929688 159.8125 131.996094 159.464844 131.996094 C 159.015625 131.996094 158.671875 131.886719 158.4375 131.671875 C 158.199219 131.457031 158.082031 131.144531 158.082031 130.742188 Z M 158.082031 127.09375 "/>
</g>
<path style=" stroke:none;fill-rule:nonzero;fill:rgb(29.803923%,68.627453%,31.37255%);fill-opacity:1;" d="M 99.246094 37.921875 L 134.773438 36.636719 C 132.566406 32.96875 132.011719 29.761719 127.792969 29.210938 C 121.476562 28.382812 115.15625 27.558594 108.839844 26.730469 L 72.070312 21.917969 C 73.167969 23.703125 90.316406 38.242188 99.246094 37.921875 "/>
<g clip-path="url(#clip3)" clip-rule="nonzero">
<path style=" stroke:none;fill-rule:nonzero;fill:rgb(29.803923%,68.627453%,31.37255%);fill-opacity:1;" d="M 55.605469 0 C 59.441406 6.367188 78.863281 20.25 84.402344 20.964844 C 99.546875 22.921875 114.6875 24.878906 129.832031 26.832031 C 126.867188 21.910156 126.179688 18.625 120.820312 17.214844 L 97.472656 11.050781 C 83.515625 7.367188 69.558594 3.683594 55.605469 0 "/>
</g>
<path style=" stroke:none;fill-rule:nonzero;fill:rgb(29.803923%,68.627453%,31.37255%);fill-opacity:1;" d="M 110.753906 49.515625 L 138.054688 43.671875 C 136.28125 40.734375 136.277344 38.96875 132.960938 39.117188 C 127.582031 39.355469 122.199219 39.597656 116.820312 39.839844 C 106.90625 40.285156 96.996094 40.730469 87.082031 41.171875 C 88.199219 42.371094 103.617188 51.042969 110.753906 49.515625 "/>
<g clip-path="url(#clip4)" clip-rule="nonzero">
<path style=" stroke:none;fill-rule:nonzero;fill:rgb(29.803923%,68.627453%,31.37255%);fill-opacity:1;" d="M 132.226562 70.585938 C 137.230469 67.320312 138.574219 63.808594 141.421875 58.46875 C 144.609375 52.480469 142.519531 51.582031 138.957031 45.65625 C 138.589844 45.054688 133.851562 45.863281 133.316406 46.453125 C 132.664062 47.167969 133.097656 51.238281 133.058594 52.152344 Z M 132.226562 70.585938 "/>
</g>
<path style=" stroke:none;fill-rule:nonzero;fill:rgb(29.803923%,68.627453%,31.37255%);fill-opacity:1;" d="M 131.0625 47.09375 C 127.746094 47.804688 123.546875 47.261719 122.699219 50.804688 L 119.097656 65.910156 C 127.179688 63.972656 130.78125 54.234375 131.0625 47.09375 "/>
<path style=" stroke:none;fill-rule:nonzero;fill:rgb(29.803923%,68.627453%,31.37255%);fill-opacity:1;" d="M 120.855469 49.441406 C 112.859375 51.15625 113.027344 53.488281 109.597656 61.007812 C 115.035156 60.492188 120.105469 54.550781 120.855469 49.441406 "/>
</g>
</svg>
