<?xml version="1.0" encoding="UTF-8"?>
<svg xmlns="http://www.w3.org/2000/svg" xmlns:xlink="http://www.w3.org/1999/xlink" width="374px" height="280px" viewBox="0 0 373 280" version="1.1">
<g id="surface1">
<path style=" stroke:none;fill-rule:nonzero;fill:rgb(0%,20%,40.000001%);fill-opacity:1;" d="M 0.398438 0 L 372.601562 0 L 372.601562 280 L 0.398438 280 Z M 0.398438 0 "/>
<path style="fill-rule:nonzero;fill:rgb(100%,99.215686%,81.568629%);fill-opacity:1;stroke-width:1.96;stroke-linecap:butt;stroke-linejoin:miter;stroke:rgb(100%,100%,100%);stroke-opacity:1;stroke-miterlimit:4;" d="M 746.556678 939.887872 L 906.965963 939.887872 M 1146.356849 939.717733 L 1306.77426 939.717733 " transform="matrix(0.48068,0,0,0.482142,-306.999088,-231.741064)"/>
<path style=" stroke:none;fill-rule:nonzero;fill:rgb(100%,99.215686%,81.568629%);fill-opacity:1;" d="M 108.125 202.824219 L 108.125 180.867188 L 103.925781 180.867188 L 103.925781 177.210938 L 116.328125 177.210938 L 116.328125 180.867188 L 112.132812 180.867188 L 112.132812 202.824219 Z M 117.207031 202.824219 L 121.363281 177.210938 L 126.800781 177.210938 L 130.960938 202.824219 L 126.949219 202.824219 L 126.210938 197.742188 L 126.210938 197.816406 L 121.65625 197.816406 L 120.925781 202.824219 Z M 122.128906 194.335938 L 125.742188 194.335938 L 123.960938 181.679688 L 123.878906 181.679688 Z M 138.105469 203.191406 C 136.164062 203.191406 134.691406 202.632812 133.695312 201.519531 C 132.699219 200.414062 132.203125 198.820312 132.203125 196.75 L 132.203125 195.285156 L 135.992188 195.285156 L 135.992188 197.042969 C 135.992188 198.695312 136.691406 199.527344 138.078125 199.527344 C 138.753906 199.527344 139.269531 199.324219 139.625 198.925781 C 139.976562 198.523438 140.148438 197.867188 140.148438 196.960938 C 140.148438 195.890625 139.910156 194.945312 139.421875 194.125 C 138.9375 193.316406 138.039062 192.332031 136.722656 191.179688 C 135.066406 189.722656 133.914062 188.402344 133.257812 187.210938 C 132.601562 186.03125 132.277344 184.695312 132.277344 183.210938 C 132.277344 181.183594 132.785156 179.617188 133.804688 178.5 C 134.828125 177.390625 136.3125 176.835938 138.257812 176.835938 C 140.175781 176.835938 141.632812 177.390625 142.621094 178.5 C 143.601562 179.617188 144.089844 181.207031 144.089844 183.285156 L 144.089844 184.339844 L 140.300781 184.339844 L 140.300781 183.027344 C 140.300781 182.148438 140.128906 181.503906 139.792969 181.101562 C 139.449219 180.703125 138.949219 180.496094 138.285156 180.496094 C 136.957031 180.496094 136.289062 181.316406 136.289062 182.945312 C 136.289062 183.882812 136.535156 184.742188 137.039062 185.550781 C 137.53125 186.351562 138.441406 187.332031 139.75 188.476562 C 141.429688 189.941406 142.582031 191.269531 143.214844 192.460938 C 143.851562 193.660156 144.160156 195.066406 144.160156 196.679688 C 144.160156 198.773438 143.648438 200.382812 142.621094 201.496094 C 141.582031 202.628906 140.078125 203.191406 138.105469 203.191406 M 146.472656 202.824219 L 146.472656 177.210938 L 150.480469 177.210938 L 150.480469 188.007812 L 155.589844 177.210938 L 159.601562 177.210938 L 154.824219 186.617188 L 159.675781 202.824219 L 155.480469 202.824219 L 152.085938 191.414062 L 150.480469 194.664062 L 150.480469 202.824219 Z M 167.410156 202.824219 L 167.410156 177.210938 L 173.136719 177.210938 L 175.6875 195.539062 L 175.765625 195.539062 L 178.3125 177.210938 L 184.050781 177.210938 L 184.050781 202.824219 L 180.257812 202.824219 L 180.257812 183.429688 L 180.183594 183.429688 L 177.261719 202.824219 L 173.902344 202.824219 L 170.988281 183.429688 L 170.914062 183.429688 L 170.914062 202.824219 Z M 185.976562 202.824219 L 190.136719 177.210938 L 195.574219 177.210938 L 199.730469 202.824219 L 195.714844 202.824219 L 194.988281 197.742188 L 194.988281 197.816406 L 190.425781 197.816406 L 189.699219 202.824219 Z M 190.898438 194.335938 L 194.511719 194.335938 L 192.722656 181.679688 L 192.648438 181.679688 Z M 201.664062 202.824219 L 201.664062 177.210938 L 206.695312 177.210938 L 210.597656 192.542969 L 210.679688 192.542969 L 210.679688 177.210938 L 214.25 177.210938 L 214.25 202.824219 L 210.125 202.824219 L 205.3125 184.121094 L 205.242188 184.121094 L 205.242188 202.824219 Z M 216.191406 202.824219 L 220.34375 177.210938 L 225.785156 177.210938 L 229.941406 202.824219 L 225.929688 202.824219 L 225.195312 197.742188 L 225.195312 197.816406 L 220.640625 197.816406 L 219.910156 202.824219 Z M 221.109375 194.335938 L 224.730469 194.335938 L 222.941406 181.679688 L 222.871094 181.679688 Z M 237.5625 203.195312 C 235.613281 203.195312 234.128906 202.632812 233.113281 201.527344 C 232.085938 200.417969 231.578125 198.828125 231.578125 196.75 L 231.578125 183.285156 C 231.578125 181.210938 232.085938 179.621094 233.113281 178.507812 C 234.128906 177.398438 235.613281 176.84375 237.5625 176.84375 C 239.507812 176.84375 240.992188 177.398438 242.011719 178.507812 C 243.035156 179.621094 243.546875 181.210938 243.546875 183.285156 L 243.546875 185.476562 L 239.75 185.476562 L 239.75 183.027344 C 239.75 181.34375 239.058594 180.507812 237.671875 180.507812 C 236.289062 180.507812 235.597656 181.34375 235.597656 183.027344 L 235.597656 197.050781 C 235.597656 198.707031 236.289062 199.539062 237.671875 199.539062 C 239.058594 199.539062 239.75 198.707031 239.75 197.050781 L 239.75 192.035156 L 237.742188 192.035156 L 237.742188 188.371094 L 243.546875 188.371094 L 243.546875 196.75 C 243.546875 198.828125 243.035156 200.417969 242.011719 201.527344 C 240.992188 202.632812 239.507812 203.195312 237.5625 203.195312 M 246.136719 202.824219 L 246.136719 177.210938 L 257.085938 177.210938 L 257.085938 180.867188 L 250.152344 180.867188 L 250.152344 187.636719 L 255.664062 187.636719 L 255.664062 191.296875 L 250.152344 191.296875 L 250.152344 199.164062 L 257.085938 199.164062 L 257.085938 202.824219 Z M 259.375 202.824219 L 259.375 177.210938 L 265.324219 177.210938 C 267.394531 177.210938 268.902344 177.691406 269.84375 178.660156 C 270.796875 179.617188 271.269531 181.101562 271.269531 183.101562 L 271.269531 184.675781 C 271.269531 187.332031 270.398438 189.015625 268.644531 189.726562 L 268.644531 189.804688 C 269.621094 190.09375 270.3125 190.691406 270.710938 191.597656 C 271.109375 192.492188 271.308594 193.703125 271.308594 195.210938 L 271.308594 199.71875 C 271.308594 200.445312 271.335938 201.039062 271.378906 201.492188 C 271.429688 201.945312 271.554688 202.386719 271.75 202.824219 L 267.664062 202.824219 C 267.511719 202.410156 267.417969 202.023438 267.367188 201.660156 C 267.324219 201.289062 267.296875 200.632812 267.296875 199.679688 L 267.296875 194.992188 C 267.296875 193.820312 267.105469 193.003906 266.726562 192.542969 C 266.355469 192.078125 265.699219 191.851562 264.777344 191.851562 L 263.390625 191.851562 L 263.390625 202.824219 Z M 263.390625 188.191406 L 264.851562 188.191406 C 265.65625 188.191406 266.253906 187.976562 266.65625 187.570312 C 267.0625 187.15625 267.265625 186.457031 267.265625 185.476562 L 267.265625 183.503906 C 267.265625 182.574219 267.097656 181.90625 266.769531 181.492188 C 266.441406 181.082031 265.929688 180.867188 265.222656 180.867188 L 263.390625 180.867188 Z M 263.390625 188.191406 "/>
<path style=" stroke:none;fill-rule:nonzero;fill:rgb(100%,100%,86.666667%);fill-opacity:1;" d="M 141.183594 225.042969 L 140.433594 225.042969 L 140.433594 219.269531 L 140.375 219.625 L 138.425781 225.042969 L 138.027344 225.042969 L 136.054688 219.625 L 136.011719 219.269531 L 136.011719 225.042969 L 135.257812 225.042969 L 135.257812 216.613281 L 135.652344 216.613281 L 138.191406 223.523438 L 138.214844 223.839844 L 138.242188 223.523438 L 140.789062 216.613281 L 141.183594 216.613281 Z M 146.875 225.042969 L 146.632812 225.042969 L 146.234375 224.445312 C 146.066406 224.664062 145.863281 224.832031 145.621094 224.960938 C 145.375 225.09375 145.105469 225.160156 144.808594 225.160156 L 144.636719 225.160156 C 144.386719 225.160156 144.160156 225.117188 143.945312 225.027344 C 143.726562 224.933594 143.542969 224.804688 143.386719 224.640625 C 143.226562 224.480469 143.09375 224.300781 143 224.082031 C 142.910156 223.863281 142.867188 223.632812 142.867188 223.386719 L 142.867188 223.335938 C 142.867188 223.085938 142.910156 222.863281 143 222.648438 C 143.09375 222.429688 143.226562 222.242188 143.386719 222.082031 C 143.542969 221.921875 143.726562 221.796875 143.945312 221.703125 C 144.160156 221.609375 144.386719 221.566406 144.636719 221.566406 L 146.152344 221.566406 L 146.152344 220.636719 C 146.152344 220.492188 146.125 220.351562 146.066406 220.230469 C 146.015625 220.101562 145.945312 219.992188 145.851562 219.894531 C 145.753906 219.800781 145.644531 219.726562 145.511719 219.675781 C 145.390625 219.617188 145.261719 219.585938 145.113281 219.585938 L 144.6875 219.585938 C 144.546875 219.585938 144.410156 219.617188 144.277344 219.675781 C 144.15625 219.726562 144.035156 219.800781 143.953125 219.894531 C 143.855469 219.992188 143.785156 220.101562 143.726562 220.230469 C 143.675781 220.351562 143.648438 220.492188 143.648438 220.636719 L 143.648438 220.855469 L 142.925781 220.734375 L 142.925781 220.675781 C 142.925781 220.433594 142.96875 220.210938 143.058594 219.992188 C 143.152344 219.773438 143.28125 219.585938 143.441406 219.429688 C 143.601562 219.269531 143.785156 219.136719 144.003906 219.050781 C 144.210938 218.953125 144.445312 218.910156 144.6875 218.910156 L 145.113281 218.910156 C 145.355469 218.910156 145.578125 218.953125 145.796875 219.050781 C 146.007812 219.136719 146.195312 219.269531 146.359375 219.429688 C 146.515625 219.585938 146.640625 219.773438 146.734375 219.992188 C 146.828125 220.210938 146.875 220.433594 146.875 220.675781 Z M 146.152344 223.429688 L 146.152344 222.125 L 144.636719 222.125 C 144.484375 222.125 144.351562 222.15625 144.222656 222.207031 C 144.097656 222.265625 143.988281 222.335938 143.894531 222.441406 C 143.800781 222.535156 143.726562 222.644531 143.667969 222.773438 C 143.617188 222.898438 143.585938 223.039062 143.585938 223.183594 L 143.585938 223.429688 C 143.585938 223.578125 143.617188 223.714844 143.667969 223.847656 C 143.726562 223.972656 143.800781 224.082031 143.894531 224.175781 C 143.988281 224.269531 144.097656 224.34375 144.222656 224.398438 C 144.351562 224.453125 144.484375 224.480469 144.636719 224.480469 L 145.113281 224.480469 C 145.261719 224.480469 145.390625 224.453125 145.511719 224.398438 C 145.644531 224.34375 145.753906 224.269531 145.851562 224.175781 C 145.945312 224.082031 146.015625 223.972656 146.066406 223.847656 C 146.125 223.714844 146.152344 223.578125 146.152344 223.429688 M 152.796875 225.042969 L 151.863281 225.042969 L 149.410156 222.039062 L 151.863281 219.027344 L 152.796875 219.027344 L 150.289062 222.039062 Z M 149.273438 225.042969 L 148.546875 225.042969 L 148.546875 216.613281 L 149.273438 216.613281 Z M 157.769531 223.386719 C 157.769531 223.632812 157.722656 223.863281 157.625 224.082031 C 157.539062 224.300781 157.414062 224.480469 157.253906 224.640625 C 157.09375 224.804688 156.90625 224.933594 156.695312 225.027344 C 156.476562 225.117188 156.25 225.160156 156.003906 225.160156 L 155.523438 225.160156 C 155.277344 225.160156 155.050781 225.117188 154.835938 225.027344 C 154.625 224.933594 154.433594 224.804688 154.273438 224.640625 C 154.113281 224.480469 153.988281 224.300781 153.894531 224.082031 C 153.808594 223.863281 153.757812 223.632812 153.757812 223.386719 L 153.757812 220.675781 C 153.757812 220.433594 153.808594 220.210938 153.894531 219.992188 C 153.988281 219.773438 154.113281 219.585938 154.273438 219.429688 C 154.433594 219.269531 154.625 219.136719 154.835938 219.050781 C 155.050781 218.953125 155.277344 218.910156 155.523438 218.910156 L 156.003906 218.910156 C 156.25 218.910156 156.476562 218.953125 156.695312 219.050781 C 156.90625 219.136719 157.09375 219.269531 157.253906 219.429688 C 157.414062 219.585938 157.539062 219.773438 157.625 219.992188 C 157.722656 220.210938 157.769531 220.433594 157.769531 220.675781 L 157.769531 222.097656 L 154.476562 222.097656 L 154.476562 223.429688 C 154.476562 223.578125 154.507812 223.714844 154.5625 223.847656 C 154.617188 223.972656 154.6875 224.082031 154.78125 224.175781 C 154.875 224.269531 154.984375 224.34375 155.117188 224.398438 C 155.242188 224.453125 155.378906 224.480469 155.523438 224.480469 L 156.003906 224.480469 C 156.148438 224.480469 156.289062 224.453125 156.410156 224.398438 C 156.535156 224.34375 156.652344 224.269531 156.746094 224.175781 C 156.839844 224.082031 156.914062 223.972656 156.964844 223.847656 C 157.023438 223.714844 157.042969 223.578125 157.042969 223.429688 L 157.042969 223.039062 L 157.769531 223.148438 Z M 157.042969 221.527344 L 157.042969 220.636719 C 157.042969 220.492188 157.023438 220.351562 156.964844 220.230469 C 156.914062 220.101562 156.839844 219.992188 156.746094 219.894531 C 156.652344 219.800781 156.535156 219.726562 156.410156 219.675781 C 156.289062 219.617188 156.148438 219.585938 156.003906 219.585938 L 155.523438 219.585938 C 155.378906 219.585938 155.242188 219.617188 155.117188 219.675781 C 154.984375 219.726562 154.875 219.800781 154.78125 219.894531 C 154.6875 219.992188 154.617188 220.101562 154.5625 220.230469 C 154.507812 220.351562 154.476562 220.492188 154.476562 220.636719 L 154.476562 221.527344 Z M 166.9375 225.042969 L 162.210938 225.042969 L 162.210938 216.613281 L 166.9375 216.613281 L 166.9375 217.34375 L 162.960938 217.34375 L 162.960938 220.472656 L 166.183594 220.472656 L 166.183594 221.195312 L 162.960938 221.195312 L 162.960938 224.320312 L 166.9375 224.320312 Z M 172.152344 219.027344 L 170.019531 225.042969 L 169.664062 225.042969 L 167.535156 219.027344 L 168.253906 219.027344 L 169.824219 223.589844 L 169.84375 223.898438 L 169.867188 223.589844 L 171.429688 219.027344 Z M 177 223.386719 C 177 223.632812 176.945312 223.863281 176.851562 224.082031 C 176.765625 224.300781 176.632812 224.480469 176.476562 224.640625 C 176.316406 224.804688 176.125 224.933594 175.917969 225.027344 C 175.699219 225.117188 175.472656 225.160156 175.230469 225.160156 L 174.753906 225.160156 C 174.507812 225.160156 174.277344 225.117188 174.0625 225.027344 C 173.851562 224.933594 173.660156 224.804688 173.503906 224.640625 C 173.34375 224.480469 173.21875 224.300781 173.125 224.082031 C 173.03125 223.863281 172.988281 223.632812 172.988281 223.386719 L 172.988281 220.675781 C 172.988281 220.433594 173.03125 220.210938 173.125 219.992188 C 173.21875 219.773438 173.34375 219.585938 173.503906 219.429688 C 173.660156 219.269531 173.851562 219.136719 174.0625 219.050781 C 174.277344 218.953125 174.507812 218.910156 174.753906 218.910156 L 175.230469 218.910156 C 175.472656 218.910156 175.699219 218.953125 175.917969 219.050781 C 176.125 219.136719 176.316406 219.269531 176.476562 219.429688 C 176.632812 219.585938 176.765625 219.773438 176.851562 219.992188 C 176.945312 220.210938 177 220.433594 177 220.675781 L 177 222.097656 L 173.703125 222.097656 L 173.703125 223.429688 C 173.703125 223.578125 173.734375 223.714844 173.792969 223.847656 C 173.84375 223.972656 173.917969 224.082031 174.011719 224.175781 C 174.105469 224.269531 174.214844 224.34375 174.34375 224.398438 C 174.46875 224.453125 174.605469 224.480469 174.753906 224.480469 L 175.230469 224.480469 C 175.378906 224.480469 175.507812 224.453125 175.640625 224.398438 C 175.765625 224.34375 175.875 224.269531 175.96875 224.175781 C 176.058594 224.082031 176.140625 223.972656 176.191406 223.847656 C 176.25 223.714844 176.273438 223.578125 176.273438 223.429688 L 176.273438 223.039062 L 177 223.148438 Z M 176.273438 221.527344 L 176.273438 220.636719 C 176.273438 220.492188 176.25 220.351562 176.191406 220.230469 C 176.140625 220.101562 176.058594 219.992188 175.96875 219.894531 C 175.875 219.800781 175.765625 219.726562 175.640625 219.675781 C 175.507812 219.617188 175.378906 219.585938 175.230469 219.585938 L 174.753906 219.585938 C 174.605469 219.585938 174.46875 219.617188 174.34375 219.675781 C 174.214844 219.726562 174.105469 219.800781 174.011719 219.894531 C 173.917969 219.992188 173.84375 220.101562 173.792969 220.230469 C 173.734375 220.351562 173.703125 220.492188 173.703125 220.636719 L 173.703125 221.527344 Z M 180.925781 219.710938 L 180.203125 219.710938 C 180.058594 219.710938 179.921875 219.742188 179.796875 219.792969 C 179.667969 219.851562 179.558594 219.925781 179.464844 220.019531 C 179.378906 220.113281 179.300781 220.222656 179.246094 220.351562 C 179.191406 220.476562 179.164062 220.617188 179.164062 220.757812 L 179.164062 225.042969 L 178.445312 225.042969 L 178.445312 219.027344 L 178.683594 219.027344 L 179.070312 219.632812 C 179.238281 219.414062 179.449219 219.238281 179.695312 219.105469 C 179.9375 218.976562 180.214844 218.910156 180.503906 218.910156 L 180.925781 218.910156 Z M 185.886719 219.027344 L 182.859375 227.457031 L 182.160156 227.457031 L 183.230469 224.523438 L 181.28125 219.027344 L 182 219.027344 L 183.5625 223.589844 L 183.585938 223.898438 L 183.609375 223.589844 L 185.171875 219.027344 Z M 193.652344 217.34375 L 191.652344 217.34375 L 191.652344 225.042969 L 190.890625 225.042969 L 190.890625 217.34375 L 188.882812 217.34375 L 188.882812 216.613281 L 193.652344 216.613281 Z M 198.617188 225.042969 L 198.378906 225.042969 L 197.976562 224.445312 C 197.820312 224.664062 197.617188 224.832031 197.367188 224.960938 C 197.121094 225.09375 196.851562 225.160156 196.5625 225.160156 L 196.378906 225.160156 C 196.140625 225.160156 195.90625 225.117188 195.695312 225.027344 C 195.480469 224.933594 195.289062 224.804688 195.128906 224.640625 C 194.96875 224.480469 194.847656 224.300781 194.753906 224.082031 C 194.664062 223.863281 194.621094 223.632812 194.621094 223.386719 L 194.621094 223.335938 C 194.621094 223.085938 194.664062 222.863281 194.753906 222.648438 C 194.847656 222.429688 194.96875 222.242188 195.128906 222.082031 C 195.289062 221.921875 195.480469 221.796875 195.695312 221.703125 C 195.90625 221.609375 196.140625 221.566406 196.378906 221.566406 L 197.898438 221.566406 L 197.898438 220.636719 C 197.898438 220.492188 197.871094 220.351562 197.820312 220.230469 C 197.761719 220.101562 197.6875 219.992188 197.601562 219.894531 C 197.507812 219.800781 197.398438 219.726562 197.265625 219.675781 C 197.140625 219.617188 197.003906 219.585938 196.859375 219.585938 L 196.4375 219.585938 C 196.292969 219.585938 196.164062 219.617188 196.03125 219.675781 C 195.902344 219.726562 195.792969 219.800781 195.695312 219.894531 C 195.605469 219.992188 195.527344 220.101562 195.480469 220.230469 C 195.421875 220.351562 195.398438 220.492188 195.398438 220.636719 L 195.398438 220.855469 L 194.675781 220.734375 L 194.675781 220.675781 C 194.675781 220.433594 194.722656 220.210938 194.808594 219.992188 C 194.902344 219.773438 195.027344 219.585938 195.1875 219.429688 C 195.347656 219.269531 195.535156 219.136719 195.753906 219.050781 C 195.964844 218.953125 196.195312 218.910156 196.4375 218.910156 L 196.859375 218.910156 C 197.097656 218.910156 197.332031 218.953125 197.542969 219.050781 C 197.761719 219.136719 197.949219 219.269531 198.109375 219.429688 C 198.269531 219.585938 198.394531 219.773438 198.488281 219.992188 C 198.574219 220.210938 198.617188 220.433594 198.617188 220.675781 Z M 197.898438 223.429688 L 197.898438 222.125 L 196.378906 222.125 C 196.234375 222.125 196.097656 222.15625 195.972656 222.207031 C 195.839844 222.265625 195.730469 222.335938 195.636719 222.441406 C 195.550781 222.535156 195.480469 222.644531 195.421875 222.773438 C 195.359375 222.898438 195.332031 223.039062 195.332031 223.183594 L 195.332031 223.429688 C 195.332031 223.578125 195.359375 223.714844 195.421875 223.847656 C 195.480469 223.972656 195.550781 224.082031 195.636719 224.175781 C 195.730469 224.269531 195.839844 224.34375 195.972656 224.398438 C 196.097656 224.453125 196.234375 224.480469 196.378906 224.480469 L 196.859375 224.480469 C 197.003906 224.480469 197.140625 224.453125 197.265625 224.398438 C 197.398438 224.34375 197.507812 224.269531 197.601562 224.175781 C 197.6875 224.082031 197.761719 223.972656 197.820312 223.847656 C 197.871094 223.714844 197.898438 223.578125 197.898438 223.429688 M 204.1875 223.519531 C 204.1875 223.757812 204.136719 223.984375 204.039062 224.179688 C 203.945312 224.386719 203.816406 224.554688 203.640625 224.699219 C 203.476562 224.847656 203.285156 224.960938 203.0625 225.042969 C 202.84375 225.121094 202.609375 225.160156 202.363281 225.160156 L 201.882812 225.160156 C 201.640625 225.160156 201.417969 225.117188 201.191406 225.027344 C 200.972656 224.933594 200.777344 224.804688 200.613281 224.640625 C 200.441406 224.480469 200.3125 224.300781 200.210938 224.082031 C 200.117188 223.863281 200.066406 223.632812 200.066406 223.386719 L 200.066406 223.148438 L 200.785156 223.039062 L 200.785156 223.429688 C 200.785156 223.578125 200.816406 223.714844 200.878906 223.847656 C 200.9375 223.972656 201.015625 224.082031 201.121094 224.175781 C 201.21875 224.269531 201.339844 224.34375 201.476562 224.398438 C 201.605469 224.453125 201.746094 224.480469 201.882812 224.480469 L 202.363281 224.480469 C 202.507812 224.480469 202.652344 224.460938 202.78125 224.414062 C 202.914062 224.371094 203.03125 224.3125 203.140625 224.226562 C 203.242188 224.148438 203.324219 224.050781 203.386719 223.941406 C 203.445312 223.824219 203.476562 223.695312 203.476562 223.546875 C 203.476562 223.335938 203.433594 223.164062 203.328125 223.023438 C 203.242188 222.882812 203.117188 222.769531 202.957031 222.679688 C 202.804688 222.585938 202.628906 222.511719 202.433594 222.453125 C 202.238281 222.386719 202.035156 222.332031 201.824219 222.265625 C 201.621094 222.207031 201.417969 222.140625 201.21875 222.058594 C 201.023438 221.980469 200.847656 221.878906 200.691406 221.753906 C 200.535156 221.621094 200.414062 221.460938 200.320312 221.273438 C 200.230469 221.074219 200.179688 220.84375 200.179688 220.558594 C 200.179688 220.308594 200.230469 220.089844 200.320312 219.886719 C 200.414062 219.683594 200.546875 219.507812 200.707031 219.363281 C 200.863281 219.214844 201.054688 219.105469 201.265625 219.027344 C 201.476562 218.945312 201.699219 218.910156 201.945312 218.910156 L 202.363281 218.910156 C 202.609375 218.910156 202.84375 218.953125 203.050781 219.050781 C 203.269531 219.136719 203.453125 219.269531 203.613281 219.429688 C 203.773438 219.585938 203.902344 219.773438 203.996094 219.992188 C 204.085938 220.210938 204.128906 220.433594 204.128906 220.675781 L 204.128906 220.695312 L 203.410156 220.8125 L 203.410156 220.636719 C 203.410156 220.492188 203.378906 220.351562 203.328125 220.230469 C 203.269531 220.101562 203.199219 219.992188 203.105469 219.894531 C 203.015625 219.800781 202.898438 219.726562 202.777344 219.675781 C 202.644531 219.617188 202.507812 219.585938 202.363281 219.585938 L 201.945312 219.585938 C 201.804688 219.585938 201.664062 219.609375 201.542969 219.652344 C 201.410156 219.695312 201.300781 219.757812 201.207031 219.835938 C 201.109375 219.914062 201.039062 220.019531 200.988281 220.128906 C 200.929688 220.242188 200.902344 220.375 200.902344 220.515625 C 200.902344 220.726562 200.953125 220.894531 201.046875 221.023438 C 201.132812 221.164062 201.257812 221.273438 201.417969 221.359375 C 201.570312 221.445312 201.746094 221.527344 201.941406 221.585938 C 202.144531 221.644531 202.339844 221.710938 202.550781 221.773438 C 202.753906 221.839844 202.953125 221.914062 203.148438 221.992188 C 203.351562 222.074219 203.527344 222.183594 203.679688 222.308594 C 203.832031 222.441406 203.953125 222.601562 204.050781 222.796875 C 204.144531 222.992188 204.1875 223.226562 204.1875 223.519531 M 210.0625 225.042969 L 209.121094 225.042969 L 206.671875 222.039062 L 209.121094 219.027344 L 210.0625 219.027344 L 207.554688 222.039062 Z M 206.535156 225.042969 L 205.816406 225.042969 L 205.816406 216.613281 L 206.535156 216.613281 Z M 218.625 223.085938 C 218.625 223.382812 218.574219 223.644531 218.46875 223.898438 C 218.359375 224.148438 218.207031 224.367188 218.027344 224.554688 C 217.839844 224.742188 217.621094 224.890625 217.367188 225 C 217.121094 225.109375 216.851562 225.160156 216.566406 225.160156 L 215.972656 225.160156 C 215.6875 225.160156 215.410156 225.109375 215.164062 225 C 214.910156 224.890625 214.691406 224.742188 214.5 224.554688 C 214.320312 224.367188 214.167969 224.148438 214.058594 223.898438 C 213.949219 223.644531 213.898438 223.382812 213.898438 223.085938 L 213.898438 218.570312 C 213.898438 218.285156 213.949219 218.011719 214.058594 217.765625 C 214.167969 217.507812 214.320312 217.289062 214.5 217.101562 C 214.691406 216.914062 214.910156 216.765625 215.164062 216.65625 C 215.410156 216.546875 215.6875 216.496094 215.972656 216.496094 L 216.566406 216.496094 C 216.851562 216.496094 217.121094 216.546875 217.367188 216.65625 C 217.621094 216.765625 217.839844 216.914062 218.027344 217.101562 C 218.207031 217.289062 218.359375 217.507812 218.46875 217.765625 C 218.574219 218.011719 218.625 218.285156 218.625 218.570312 L 218.625 218.910156 L 217.875 219.027344 L 217.875 218.570312 C 217.875 218.378906 217.839844 218.203125 217.765625 218.035156 C 217.695312 217.875 217.601562 217.738281 217.476562 217.613281 C 217.359375 217.496094 217.222656 217.394531 217.054688 217.328125 C 216.894531 217.257812 216.71875 217.21875 216.53125 217.21875 L 216 217.21875 C 215.820312 217.21875 215.644531 217.257812 215.476562 217.328125 C 215.316406 217.394531 215.171875 217.496094 215.046875 217.613281 C 214.933594 217.738281 214.828125 217.875 214.765625 218.035156 C 214.691406 218.203125 214.65625 218.378906 214.65625 218.570312 L 214.65625 223.085938 C 214.65625 223.277344 214.691406 223.453125 214.765625 223.621094 C 214.828125 223.78125 214.933594 223.929688 215.046875 224.042969 C 215.171875 224.175781 215.316406 224.269531 215.476562 224.34375 C 215.644531 224.410156 215.820312 224.445312 216 224.445312 L 216.53125 224.445312 C 216.71875 224.445312 216.894531 224.410156 217.054688 224.34375 C 217.222656 224.269531 217.359375 224.175781 217.476562 224.042969 C 217.601562 223.929688 217.695312 223.78125 217.765625 223.621094 C 217.839844 223.453125 217.875 223.277344 217.875 223.085938 L 217.875 222.636719 L 218.625 222.757812 Z M 224.078125 223.386719 C 224.078125 223.632812 224.035156 223.863281 223.941406 224.082031 C 223.851562 224.300781 223.726562 224.480469 223.558594 224.640625 C 223.398438 224.804688 223.21875 224.933594 223 225.027344 C 222.789062 225.117188 222.558594 225.160156 222.316406 225.160156 L 221.832031 225.160156 C 221.589844 225.160156 221.367188 225.117188 221.148438 225.027344 C 220.929688 224.933594 220.746094 224.804688 220.585938 224.640625 C 220.421875 224.480469 220.296875 224.300781 220.207031 224.082031 C 220.113281 223.863281 220.070312 223.632812 220.070312 223.386719 L 220.070312 220.675781 C 220.070312 220.433594 220.113281 220.210938 220.207031 219.992188 C 220.296875 219.773438 220.421875 219.585938 220.585938 219.429688 C 220.746094 219.269531 220.929688 219.136719 221.148438 219.050781 C 221.367188 218.953125 221.589844 218.910156 221.832031 218.910156 L 222.316406 218.910156 C 222.558594 218.910156 222.789062 218.953125 223 219.050781 C 223.21875 219.136719 223.398438 219.269531 223.558594 219.429688 C 223.726562 219.585938 223.851562 219.773438 223.941406 219.992188 C 224.035156 220.210938 224.078125 220.433594 224.078125 220.675781 Z M 223.355469 223.429688 L 223.355469 220.636719 C 223.355469 220.492188 223.328125 220.351562 223.273438 220.230469 C 223.21875 220.101562 223.148438 219.992188 223.050781 219.894531 C 222.957031 219.800781 222.847656 219.726562 222.722656 219.675781 C 222.59375 219.617188 222.453125 219.585938 222.316406 219.585938 L 221.832031 219.585938 C 221.695312 219.585938 221.554688 219.617188 221.421875 219.675781 C 221.300781 219.726562 221.191406 219.800781 221.09375 219.894531 C 221 219.992188 220.929688 220.101562 220.871094 220.230469 C 220.820312 220.351562 220.792969 220.492188 220.792969 220.636719 L 220.792969 223.429688 C 220.792969 223.578125 220.820312 223.714844 220.871094 223.847656 C 220.929688 223.972656 221 224.082031 221.09375 224.175781 C 221.191406 224.269531 221.300781 224.34375 221.421875 224.398438 C 221.554688 224.453125 221.695312 224.480469 221.832031 224.480469 L 222.316406 224.480469 C 222.453125 224.480469 222.59375 224.453125 222.722656 224.398438 C 222.847656 224.34375 222.957031 224.269531 223.050781 224.175781 C 223.148438 224.082031 223.21875 223.972656 223.273438 223.847656 C 223.328125 223.714844 223.355469 223.578125 223.355469 223.429688 M 229.527344 225.042969 L 229.289062 225.042969 L 228.886719 224.429688 C 228.730469 224.65625 228.515625 224.832031 228.269531 224.960938 C 228.03125 225.09375 227.761719 225.160156 227.464844 225.160156 L 227.28125 225.160156 C 227.042969 225.160156 226.808594 225.117188 226.597656 225.027344 C 226.378906 224.933594 226.191406 224.804688 226.035156 224.640625 C 225.871094 224.480469 225.75 224.300781 225.660156 224.082031 C 225.566406 223.863281 225.523438 223.632812 225.523438 223.386719 L 225.523438 219.027344 L 226.242188 219.027344 L 226.242188 223.429688 C 226.242188 223.578125 226.269531 223.714844 226.324219 223.847656 C 226.378906 223.972656 226.453125 224.082031 226.542969 224.175781 C 226.640625 224.269531 226.75 224.34375 226.875 224.398438 C 227.007812 224.453125 227.136719 224.480469 227.28125 224.480469 L 227.761719 224.480469 C 227.910156 224.480469 228.046875 224.453125 228.175781 224.398438 C 228.300781 224.34375 228.40625 224.269531 228.503906 224.175781 C 228.597656 224.082031 228.667969 223.972656 228.730469 223.847656 C 228.777344 223.714844 228.808594 223.578125 228.808594 223.429688 L 228.808594 219.027344 L 229.527344 219.027344 Z M 234.972656 225.042969 L 234.261719 225.042969 L 234.261719 220.636719 C 234.261719 220.492188 234.234375 220.351562 234.171875 220.230469 C 234.117188 220.101562 234.042969 219.992188 233.949219 219.894531 C 233.859375 219.800781 233.746094 219.726562 233.621094 219.675781 C 233.496094 219.617188 233.359375 219.585938 233.214844 219.585938 L 232.734375 219.585938 C 232.589844 219.585938 232.449219 219.617188 232.328125 219.675781 C 232.195312 219.726562 232.085938 219.800781 231.992188 219.894531 C 231.898438 219.992188 231.828125 220.101562 231.773438 220.230469 C 231.71875 220.351562 231.695312 220.492188 231.695312 220.636719 L 231.695312 225.042969 L 230.96875 225.042969 L 230.96875 219.027344 L 231.210938 219.027344 L 231.597656 219.632812 C 231.769531 219.414062 231.96875 219.238281 232.21875 219.105469 C 232.464844 218.976562 232.742188 218.910156 233.03125 218.910156 L 233.214844 218.910156 C 233.453125 218.910156 233.6875 218.953125 233.898438 219.050781 C 234.117188 219.136719 234.296875 219.269531 234.457031 219.429688 C 234.625 219.585938 234.746094 219.773438 234.839844 219.992188 C 234.929688 220.210938 234.972656 220.433594 234.972656 220.675781 Z M 239.261719 225.042969 L 238.601562 225.042969 C 238.382812 225.042969 238.179688 225.007812 237.984375 224.917969 C 237.792969 224.835938 237.628906 224.726562 237.480469 224.585938 C 237.34375 224.4375 237.226562 224.269531 237.140625 224.070312 C 237.058594 223.882812 237.015625 223.679688 237.015625 223.460938 L 237.015625 219.710938 L 235.933594 219.710938 L 235.933594 219.027344 L 237.015625 219.027344 L 237.015625 217.585938 L 237.738281 217.460938 L 237.738281 219.027344 L 239.261719 219.027344 L 239.261719 219.710938 L 237.738281 219.710938 L 237.738281 223.492188 C 237.738281 223.613281 237.765625 223.730469 237.808594 223.832031 C 237.851562 223.933594 237.910156 224.027344 237.988281 224.101562 C 238.0625 224.179688 238.15625 224.242188 238.265625 224.285156 C 238.371094 224.335938 238.484375 224.355469 238.601562 224.355469 L 239.261719 224.355469 Z M 239.261719 225.042969 "/>
<path style=" stroke:none;fill-rule:nonzero;fill:rgb(100%,99.215686%,81.568629%);fill-opacity:1;" d="M 187.082031 51.925781 C 156.929688 51.925781 132.480469 76.445312 132.480469 106.691406 C 132.480469 136.9375 156.929688 161.453125 187.082031 161.453125 C 217.234375 161.453125 241.675781 136.9375 241.675781 106.691406 C 241.675781 76.445312 217.234375 51.925781 187.082031 51.925781 "/>
<path style=" stroke:none;fill-rule:nonzero;fill:rgb(0%,20%,40.000001%);fill-opacity:1;" d="M 205.421875 78.121094 L 198.234375 78.121094 L 198.234375 75.183594 C 198.234375 74.511719 197.703125 73.851562 196.902344 73.851562 L 175.59375 73.851562 C 174.863281 73.851562 174.265625 74.445312 174.265625 75.183594 L 174.265625 78.121094 L 167.074219 78.121094 C 163.746094 78.121094 160.953125 80.789062 160.953125 84.261719 L 160.953125 131.945312 C 160.953125 135.148438 163.746094 137.949219 167.074219 137.949219 L 205.292969 137.949219 C 208.621094 137.949219 211.414062 135.148438 211.414062 131.8125 L 211.414062 84.261719 C 211.550781 80.789062 208.75 78.121094 205.421875 78.121094 M 195.574219 76.519531 L 195.574219 82.796875 L 176.933594 82.796875 L 176.933594 76.519531 Z M 208.882812 131.8125 C 208.882812 133.679688 207.292969 135.28125 205.421875 135.28125 L 167.074219 135.28125 C 165.214844 135.28125 163.613281 133.808594 163.613281 131.8125 L 163.613281 84.261719 C 163.613281 82.398438 165.214844 80.789062 167.074219 80.789062 L 174.265625 80.789062 L 174.265625 84.132812 C 174.265625 84.792969 174.804688 85.464844 175.59375 85.464844 L 196.902344 85.464844 C 197.574219 85.464844 198.234375 84.933594 198.234375 84.132812 L 198.234375 80.789062 L 205.292969 80.789062 C 207.152344 80.789062 208.75 82.398438 208.75 84.261719 L 208.75 131.8125 Z M 208.882812 131.8125 "/>
<path style=" stroke:none;fill-rule:nonzero;fill:rgb(0%,20%,40.000001%);fill-opacity:1;" d="M 203.023438 105.101562 L 194.644531 105.101562 C 193.902344 105.101562 193.304688 105.699219 193.304688 106.4375 L 193.304688 114.851562 C 193.304688 115.515625 193.839844 116.183594 194.644531 116.183594 L 203.023438 116.183594 C 203.691406 116.183594 204.363281 115.652344 204.363281 114.851562 L 204.363281 106.4375 C 204.363281 105.632812 203.820312 105.101562 203.023438 105.101562 M 201.832031 113.378906 L 196.101562 113.378906 L 196.101562 107.640625 L 201.832031 107.640625 Z M 203.023438 119.65625 L 194.644531 119.65625 C 193.902344 119.65625 193.304688 120.253906 193.304688 120.992188 L 193.304688 129.40625 C 193.304688 130.074219 193.839844 130.742188 194.644531 130.742188 L 203.023438 130.742188 C 203.691406 130.742188 204.363281 130.207031 204.363281 129.40625 L 204.363281 120.992188 C 204.363281 120.1875 203.820312 119.65625 203.023438 119.65625 M 201.832031 128.070312 L 196.101562 128.070312 L 196.101562 122.324219 L 201.832031 122.324219 Z M 188.785156 106.835938 L 169.34375 106.835938 C 168.605469 106.835938 168.003906 107.433594 168.003906 108.171875 C 168.003906 108.910156 168.605469 109.507812 169.34375 109.507812 L 188.785156 109.507812 C 189.445312 109.507812 190.113281 108.976562 190.113281 108.171875 C 190.113281 107.5 189.445312 106.835938 188.785156 106.835938 M 188.785156 111.644531 L 175.59375 111.644531 C 174.863281 111.644531 174.265625 112.242188 174.265625 112.976562 C 174.265625 113.710938 174.863281 114.3125 175.59375 114.3125 L 188.785156 114.3125 C 189.445312 114.3125 190.113281 113.777344 190.113281 112.976562 C 190.113281 112.3125 189.445312 111.644531 188.785156 111.644531 M 188.785156 119.65625 L 169.34375 119.65625 C 168.605469 119.65625 168.003906 120.253906 168.003906 120.992188 C 168.003906 121.726562 168.605469 122.324219 169.34375 122.324219 L 188.785156 122.324219 C 189.445312 122.324219 190.113281 121.792969 190.113281 120.992188 C 190.113281 120.1875 189.445312 119.65625 188.785156 119.65625 M 188.785156 124.460938 L 175.59375 124.460938 C 174.863281 124.460938 174.265625 125.058594 174.265625 125.804688 C 174.265625 126.539062 174.863281 127.136719 175.59375 127.136719 L 188.785156 127.136719 C 189.445312 127.136719 190.113281 126.597656 190.113281 125.804688 C 190.113281 125 189.445312 124.460938 188.785156 124.460938 M 188.785156 92.273438 L 169.34375 92.273438 C 168.605469 92.273438 168.003906 92.875 168.003906 93.609375 C 168.003906 94.351562 168.605469 94.953125 169.34375 94.953125 L 188.785156 94.953125 C 189.445312 94.953125 190.113281 94.414062 190.113281 93.609375 C 190.113281 92.808594 189.445312 92.273438 188.785156 92.273438 M 188.785156 97.085938 L 175.59375 97.085938 C 174.863281 97.085938 174.265625 97.6875 174.265625 98.421875 C 174.265625 99.160156 174.863281 99.757812 175.59375 99.757812 L 188.785156 99.757812 C 189.445312 99.757812 190.113281 99.226562 190.113281 98.421875 C 190.113281 97.621094 189.445312 97.085938 188.785156 97.085938 M 203.023438 90.539062 L 194.644531 90.539062 C 193.902344 90.539062 193.304688 91.136719 193.304688 91.875 L 193.304688 100.289062 C 193.304688 100.960938 193.839844 101.625 194.644531 101.625 L 203.023438 101.625 C 203.691406 101.625 204.363281 101.089844 204.363281 100.289062 L 204.363281 91.875 C 204.363281 91.070312 203.820312 90.539062 203.023438 90.539062 M 201.832031 98.824219 L 196.101562 98.824219 L 196.101562 93.078125 L 201.832031 93.078125 Z M 201.832031 98.824219 "/>
</g>
</svg>
